<svg width="86" height="87" viewBox="0 0 86 87" fill="none" xmlns="http://www.w3.org/2000/svg">
<path d="M76.154 26.7161C75.7621 25.2401 74.9893 23.8931 73.9129 22.8098C72.8366 21.7266 71.4945 20.9451 70.0211 20.5438C64.6118 19.0845 42.9212 19.0845 42.9212 19.0845C42.9212 19.0845 21.2305 19.0845 15.8213 20.5438C14.3479 20.9451 13.0058 21.7266 11.9294 22.8098C10.853 23.8931 10.0802 25.2401 9.68831 26.7161C8.23853 32.1599 8.23853 43.5197 8.23853 43.5197C8.23853 43.5197 8.23853 54.8795 9.68831 60.3245C10.0802 61.8004 10.853 63.1475 11.9294 64.2308C13.0058 65.314 14.3479 66.0955 15.8213 66.4968C21.2305 67.9549 42.9212 67.9549 42.9212 67.9549C42.9212 67.9549 64.6118 67.9549 70.0211 66.4968C71.4945 66.0955 72.8366 65.314 73.9129 64.2308C74.9893 63.1475 75.7621 61.8004 76.154 60.3245C77.6038 54.8795 77.6038 43.5197 77.6038 43.5197C77.6038 43.5197 77.6038 32.1599 76.154 26.7161Z" fill="#EA5A47"/>
<path d="M35.8271 53.8325L53.9566 43.5195L35.8271 33.2065V53.8325Z" fill="white"/>
<path d="M76.154 26.7161C75.7621 25.2401 74.9893 23.8931 73.9129 22.8098C72.8366 21.7266 71.4945 20.9451 70.0211 20.5438C64.6118 19.0845 42.9212 19.0845 42.9212 19.0845C42.9212 19.0845 21.2305 19.0845 15.8213 20.5438C14.3479 20.9451 13.0058 21.7266 11.9294 22.8098C10.8531 23.8931 10.0802 25.2401 9.68831 26.7161C8.23853 32.1599 8.23853 43.5197 8.23853 43.5197C8.23853 43.5197 8.23853 54.8795 9.68831 60.3245C10.0802 61.8004 10.8531 63.1475 11.9294 64.2308C13.0058 65.314 14.3479 66.0955 15.8213 66.4968C21.2305 67.9549 42.9212 67.9549 42.9212 67.9549C42.9212 67.9549 64.6118 67.9549 70.0211 66.4968C71.4945 66.0955 72.8366 65.314 73.9129 64.2308C74.9893 63.1475 75.7621 61.8004 76.154 60.3245C77.6038 54.8795 77.6038 43.5197 77.6038 43.5197C77.6038 43.5197 77.6038 32.1599 76.154 26.7161Z" stroke="black" stroke-width="2" stroke-miterlimit="10"/>
<path d="M35.8271 53.8325L53.9566 43.5195L35.8271 33.2065V53.8325Z" stroke="black" stroke-width="2" stroke-miterlimit="10" stroke-linecap="round" stroke-linejoin="round"/>
</svg>
