<svg width="86" height="86" viewBox="0 0 86 86" fill="none" xmlns="http://www.w3.org/2000/svg">
<path d="M68.0114 14.3071H17.9367C16.6719 14.3071 15.4589 14.8096 14.5645 15.7039C13.6702 16.5983 13.1677 17.8113 13.1677 19.0761V69.1508C13.1677 70.4156 13.6702 71.6286 14.5645 72.523C15.4589 73.4173 16.6719 73.9198 17.9367 73.9198H68.0114C69.2762 73.9198 70.4892 73.4173 71.3836 72.523C72.2779 71.6286 72.7804 70.4156 72.7804 69.1508V19.0761C72.7804 17.8113 72.2779 16.5983 71.3836 15.7039C70.4892 14.8096 69.2762 14.3071 68.0114 14.3071Z" fill="#61B2E4"/>
<path d="M44.0889 73.9307H55.4153" stroke="white" stroke-width="2" stroke-miterlimit="10"/>
<path d="M57.8772 32.005H63.4665V23.6223C59.7395 23.6223 44.8363 19.8965 44.8363 35.7308V41.3189H37.3848V50.6339H44.8363V72.7669L54.1514 72.7502V50.6351H62.5342L63.4653 41.3201H54.1514V35.732C54.1514 32.0062 56.9461 32.005 57.8772 32.005Z" fill="white"/>
<path d="M54.4423 73.9198H68.9342C69.9542 73.9198 70.9325 73.5146 71.6539 72.7933C72.3752 72.072 72.7804 71.0937 72.7804 70.0736V18.1533C72.7804 17.1333 72.3752 16.155 71.6539 15.4337C70.9325 14.7124 69.9542 14.3071 68.9342 14.3071H17.0139C15.9939 14.3071 15.0156 14.7124 14.2943 15.4337C13.5729 16.155 13.1677 17.1333 13.1677 18.1533V70.0736C13.1677 71.0937 13.5729 72.072 14.2943 72.7933C15.0156 73.5146 15.9939 73.9198 17.0139 73.9198H45.0033" stroke="black" stroke-width="2" stroke-miterlimit="10"/>
<path d="M54.441 73.9198V50.3227H62.9358L63.8801 40.8837H54.441V35.2205C54.441 31.4446 57.2726 31.4446 58.2169 31.4446H63.8801V22.951C60.0649 22.5647 45.002 19.1763 45.002 35.2217V40.8849H37.4514V50.3239H45.002V73.9198" stroke="black" stroke-width="2" stroke-linecap="round" stroke-linejoin="round"/>
</svg>
