<svg width="86" height="86" viewBox="0 0 86 86" fill="none" xmlns="http://www.w3.org/2000/svg">
<path d="M60.8386 25.5975C60.8469 26.5404 60.4836 27.4486 59.8272 28.1256C59.1709 28.8026 58.2744 29.1938 57.3317 29.2147C56.389 29.2355 55.4761 28.8843 54.7904 28.237C54.1048 27.5897 53.7017 26.6984 53.6683 25.7561L46.0403 24.1346L43.787 34.9126C49.108 35.1034 53.8841 36.7356 57.3357 39.2619C57.8783 38.7379 58.5298 38.3401 59.2439 38.0969C59.9579 37.8537 60.7169 37.7712 61.4665 37.8552C62.2161 37.9392 62.938 38.1877 63.5805 38.5829C64.223 38.9781 64.7703 39.5103 65.1834 40.1414C65.5965 40.7726 65.8652 41.4871 65.9702 42.2341C66.0752 42.9811 66.014 43.742 65.791 44.4626C65.568 45.1832 65.1887 45.8457 64.68 46.4028C64.1714 46.9598 63.5461 47.3977 62.8487 47.6852C62.9083 48.1335 62.9405 48.5866 62.9405 49.0444C62.9405 56.862 53.8949 63.1976 42.7366 63.1976C31.5795 63.1976 22.5339 56.862 22.5339 49.0456C22.5339 48.5496 22.5696 48.0596 22.6412 47.5755C21.9756 47.2598 21.386 46.8042 20.9124 46.2399C20.4389 45.6756 20.0926 45.0159 19.8971 44.3056C19.7016 43.5954 19.6616 42.8514 19.7797 42.1242C19.8978 41.3971 20.1713 40.704 20.5815 40.0922C20.9918 39.4803 21.5291 38.9641 22.1569 38.5787C22.7847 38.1933 23.4882 37.9478 24.2195 37.859C24.9508 37.7701 25.6926 37.84 26.3945 38.0638C27.0963 38.2876 27.7416 38.66 28.2865 39.1558C31.7822 36.6485 36.5965 35.0485 41.9449 34.9043L44.451 22.9102C44.4797 22.7721 44.5404 22.6427 44.6282 22.5323C44.716 22.4219 44.8285 22.3337 44.9566 22.2747C45.1441 22.1741 45.3612 22.1432 45.5694 22.1877L54.0439 23.9892C54.4051 23.266 55.0001 22.686 55.7323 22.3434C56.4646 22.0008 57.2911 21.9156 58.0778 22.1017C58.8645 22.2878 59.5652 22.7342 60.0664 23.3685C60.5675 24.0029 60.8396 24.7891 60.8386 25.5975Z" fill="white"/>
<path fill-rule="evenodd" clip-rule="evenodd" d="M42.9606 77.4964C62.0557 77.4964 77.5359 62.0162 77.5359 42.921C77.5359 23.8259 62.0557 8.3457 42.9606 8.3457C23.8655 8.3457 8.38525 23.8259 8.38525 42.921C8.38525 62.0162 23.8655 77.4964 42.9606 77.4964ZM60.8384 25.5976C60.832 26.531 60.462 27.4252 59.807 28.0903C59.152 28.7553 58.2636 29.1389 57.3303 29.1595C56.3971 29.1802 55.4926 28.8362 54.8088 28.2008C54.1251 27.5653 53.7159 26.6884 53.6682 25.7562L46.0402 24.1347L43.7868 34.9127C49.1079 35.1034 53.884 36.7356 57.3356 39.262C57.8781 38.738 58.5297 38.3401 59.2438 38.097C59.9578 37.8538 60.7167 37.7713 61.4664 37.8553C62.216 37.9393 62.9378 38.1878 63.5803 38.583C64.2229 38.9781 64.7702 39.5103 65.1833 40.1415C65.5964 40.7726 65.865 41.4872 65.9701 42.2342C66.0751 42.9812 66.0139 43.7421 65.7909 44.4627C65.5679 45.1833 65.1885 45.8458 64.6799 46.4029C64.1713 46.9599 63.546 47.3978 62.8486 47.6853C62.9082 48.1336 62.9404 48.5866 62.9404 49.0445C62.9404 56.8621 53.8947 63.1977 42.7365 63.1977C31.5793 63.1977 22.5337 56.8621 22.5337 49.0457C22.5337 48.5497 22.5695 48.0597 22.641 47.5756C21.9755 47.2598 21.3858 46.8043 20.9123 46.24C20.4388 45.6757 20.0924 45.016 19.897 44.3057C19.7015 43.5955 19.6614 42.8514 19.7795 42.1243C19.8977 41.3972 20.1712 40.7041 20.5814 40.0922C20.9916 39.4804 21.529 38.9642 22.1568 38.5788C22.7846 38.1934 23.4881 37.9479 24.2194 37.8591C24.9507 37.7702 25.6925 37.84 26.3943 38.0638C27.0962 38.2876 27.7415 38.6601 28.2863 39.1559C31.782 36.6486 36.5963 35.0486 41.9448 34.9043L44.4509 22.9103C44.4796 22.7722 44.5403 22.6427 44.6281 22.5324C44.7159 22.422 44.8283 22.3338 44.9564 22.2748C45.144 22.1743 45.3611 22.1434 45.5692 22.1878L54.0438 23.9893C54.4058 23.2671 55.0009 22.6882 55.7328 22.3464C56.4647 22.0045 57.2906 21.9197 58.0767 22.1056C58.8628 22.2916 59.5632 22.7374 60.0644 23.3709C60.5656 24.0045 60.8383 24.7898 60.8384 25.5976Z" fill="#EA5A47"/>
<path d="M34.4517 55.0962C38.3563 58.5132 47.6284 58.5132 51.0442 55.0962" stroke="black" stroke-width="1.75" stroke-linecap="round"/>
<path d="M50.8999 48.9575C52.2168 48.9575 53.2844 47.8899 53.2844 46.573C53.2844 45.2561 52.2168 44.1885 50.8999 44.1885C49.583 44.1885 48.5154 45.2561 48.5154 46.573C48.5154 47.8899 49.583 48.9575 50.8999 48.9575Z" fill="black"/>
<path d="M35.0132 48.9575C36.3301 48.9575 37.3977 47.8899 37.3977 46.573C37.3977 45.2561 36.3301 44.1885 35.0132 44.1885C33.6962 44.1885 32.6287 45.2561 32.6287 46.573C32.6287 47.8899 33.6962 48.9575 35.0132 48.9575Z" fill="black"/>
<path d="M76.3438 42.9212C76.3438 61.3582 61.3977 76.3043 42.9607 76.3043C24.5237 76.3043 9.57764 61.3582 9.57764 42.9212C9.57764 24.4842 24.5237 9.53809 42.9607 9.53809C61.3977 9.53809 76.3438 24.4842 76.3438 42.9212ZM57.2523 30.3763C58.063 30.3764 58.8604 30.1703 59.5695 29.7773C60.2787 29.3844 60.8762 28.8175 61.3059 28.1301C61.7356 27.4426 61.9834 26.6571 62.026 25.8475C62.0686 25.0379 61.9045 24.2308 61.5493 23.5021C61.194 22.7733 60.6592 22.1469 59.9952 21.6818C59.3312 21.2166 58.5598 20.928 57.7535 20.8431C56.9473 20.7582 56.1327 20.8797 55.3863 21.1963C54.64 21.5129 53.9864 22.0141 53.4871 22.6529L45.8174 21.0219C45.3452 20.9211 44.8528 20.9869 44.4236 21.2079C43.8609 21.4797 43.4221 22.0031 43.2838 22.6672L40.9673 33.7527C36.141 34.0341 31.7392 35.4601 28.3294 37.6812C27.637 37.2243 26.8615 36.9082 26.047 36.751C25.2325 36.5937 24.395 36.5985 23.5823 36.765C22.7696 36.9314 21.9977 37.2563 21.3106 37.7211C20.6234 38.1859 20.0346 38.7814 19.5777 39.4738C18.6548 40.872 18.3252 42.5796 18.6614 44.2209C18.9976 45.8622 19.972 47.3027 21.3702 48.2255C21.3507 48.4985 21.3412 48.7721 21.3416 49.0458C21.3416 53.4488 23.8906 57.3141 27.7678 60.0288C31.6462 62.7471 36.9434 64.3901 42.7366 64.3901C48.5309 64.3901 53.8269 62.7471 57.7077 60.0288C61.5825 57.3141 64.1328 53.4488 64.1328 49.0458C64.1328 48.824 64.1268 48.6035 64.1137 48.3829C64.845 47.9503 65.4816 47.3746 65.9853 46.6903C66.489 46.0059 66.8494 45.227 67.045 44.4001C67.2405 43.5731 67.2673 42.7153 67.1236 41.8778C66.9799 41.0403 66.6686 40.2405 66.2086 39.5261C65.7485 38.8117 65.149 38.1974 64.446 37.7202C63.743 37.2429 62.9509 36.9123 62.1172 36.7483C61.2834 36.5843 60.4252 36.5902 59.5937 36.7657C58.7623 36.9411 57.9749 37.2825 57.2785 37.7694C54.0201 35.6115 49.8388 34.1855 45.2367 33.804L46.9619 25.5489L52.6132 26.7506C52.8712 27.7855 53.4679 28.7045 54.3082 29.3612C55.1486 30.018 56.1845 30.3749 57.2511 30.3751L57.2523 30.3763Z" stroke="black" stroke-width="2"/>
</svg>
