<svg width="96" height="96" viewBox="0 0 96 96" fill="none" xmlns="http://www.w3.org/2000/svg">
<path fill-rule="evenodd" clip-rule="evenodd" d="M57.652 43.9935C55.5893 44.5202 54.0787 46.0229 53.296 48.3295C52.8693 49.5882 52.8693 51.3548 53.296 52.6148C54.0373 54.7948 55.3493 56.2215 57.248 56.9095C58.652 57.4188 59.9613 57.3228 61.444 56.6028C65.572 54.6015 66.3147 48.4562 62.8107 45.2895C61.368 43.9855 59.512 43.5188 57.652 43.9935ZM35.416 43.9869C34.448 44.2349 33.9533 44.4869 33.1333 45.1535C31.0547 46.8415 30.28 49.9055 30.9867 52.4575C31.4267 54.0455 32.5933 55.6442 33.8467 56.3789C35.3027 57.2322 37.0787 57.5162 38.6733 56.8642C41.2773 55.8002 42.7733 53.2588 42.7747 50.5215C42.7747 49.0602 42.6173 48.3909 41.9627 47.0709C41.4693 46.0775 40.248 44.8522 39.2987 44.3988C38.028 43.7935 36.7187 43.6549 35.416 43.9869Z" fill="white"/>
<path fill-rule="evenodd" clip-rule="evenodd" d="M58.4987 22.8719C62.9841 23.8092 67.4587 25.2052 70.4761 26.6105C70.6721 26.7012 70.8174 26.7652 70.9481 26.8492C71.3747 27.1199 71.6601 27.6092 73.0907 29.9519C75.0107 33.0972 77.0507 37.3145 78.0641 40.2319C78.2187 40.6812 78.4401 41.2945 78.5561 41.5959C78.8761 42.4332 79.9241 46.2799 80.1987 47.6292C80.4094 48.6625 80.6201 49.9785 81.0534 52.9572C81.2841 54.5385 81.3801 57.2772 81.3121 60.3319C81.2281 64.1372 81.1747 64.7559 80.9041 64.9625C80.4841 65.2825 78.3641 66.7052 77.4241 67.2959C73.7361 69.6159 69.7747 71.4572 65.1614 72.9972C64.6814 73.1572 64.2481 73.2879 64.1987 73.2879C63.9041 73.2879 61.5641 69.7919 61.4481 69.6185L61.4374 69.6025L58.9521 65.8359C58.1414 66.0625 57.3387 66.2732 56.6027 66.4519C51.9881 67.5705 45.9401 67.7052 40.8321 66.8039C39.4288 66.5402 38.0374 66.2172 36.6614 65.8359L33.8481 69.6119L30.9881 73.2879C30.9881 73.2879 30.9881 73.3865 29.8801 72.9972C27.5667 71.9999 20.2721 68.5039 18.6241 67.4599C17.5281 66.7652 15.2347 65.2212 14.9587 64.9932C14.6961 64.7745 14.6827 64.7172 14.5667 63.2225C14.3361 60.2519 14.4441 54.9825 14.7827 52.7572C14.8843 52.0765 14.9843 51.3956 15.0827 50.7145C15.216 49.815 15.3653 48.918 15.5307 48.0239C15.7894 46.6585 16.9241 42.4279 17.2814 41.4959C17.3974 41.1945 17.6174 40.5892 17.7694 40.1492C19.0147 36.5732 21.4361 31.8159 24.0147 27.8759C24.2481 27.5199 24.3934 27.2892 24.5801 27.1025C24.9441 26.7399 25.4681 26.5372 27.1081 25.8759C30.0654 24.6839 33.1027 23.7785 36.8401 22.9732C37.3614 22.8612 37.9467 22.7452 38.1374 22.7145C38.239 22.6987 38.3431 22.7154 38.4346 22.7624C38.5261 22.8093 38.6004 22.8841 38.6467 22.9759L39.1067 23.8812C39.4102 24.4747 39.7005 25.0749 39.9774 25.6812L40.0574 25.8652C40.1068 25.9787 40.1918 26.073 40.2996 26.1339C40.4074 26.1948 40.532 26.2189 40.6547 26.2025C45.0201 25.6185 50.2374 25.5812 54.3441 26.1052C54.9947 26.1892 55.5361 26.2439 55.5441 26.2265C55.5547 26.2105 55.9601 25.4012 56.4467 24.4279C56.9334 23.4545 57.3801 22.6625 57.4414 22.6665C57.5014 22.6705 57.9774 22.7625 58.4987 22.8719ZM53.2961 48.3225C54.0801 46.0159 55.5894 44.5145 57.6521 43.9865C59.5107 43.5119 61.3681 43.9785 62.8121 45.2825C66.3147 48.4505 65.5721 54.5945 61.4427 56.5972C59.9601 57.3172 58.6521 57.4119 57.2481 56.9039C55.3494 56.2145 54.0361 54.7879 53.2961 52.6079C52.8694 51.3479 52.8694 49.5812 53.2961 48.3225ZM33.1347 45.1465C33.9547 44.4799 34.4494 44.2279 35.4174 43.9812C36.7201 43.6479 38.0294 43.7879 39.2987 44.3932C40.2494 44.8465 41.4721 46.0705 41.9654 47.0639C42.6187 48.3839 42.7761 49.0532 42.7747 50.5145C42.7747 53.2532 41.2774 55.7945 38.6747 56.8585C37.0801 57.5105 35.3041 57.2252 33.8481 56.3732C32.5947 55.6399 31.4281 54.0399 30.9881 52.4519C30.2814 49.8985 31.0547 46.8345 33.1347 45.1465Z" fill="#B399C8"/>
<path d="M60.6667 65.3335C59.856 65.5602 57.336 66.2789 56.6 66.4562C51.9867 67.5762 45.9387 67.7095 40.8307 66.8082C39.4273 66.545 38.0358 66.222 36.66 65.8402L33.8467 69.6162L30.9867 73.2935C30.9867 73.2935 30.9867 73.3909 29.8787 73.0015C27.5653 72.0042 20.2693 68.5082 18.6227 67.4655C17.5253 66.7695 15.2333 65.2255 14.956 64.9989C14.6933 64.7789 14.6813 64.7215 14.5653 63.2269C14.3333 60.2562 14.4427 54.9869 14.7813 52.7629C14.8347 52.4055 14.9707 51.4869 15.0813 50.7189C15.2145 49.8194 15.3639 48.9223 15.5293 48.0282C15.788 46.6642 16.9227 42.4322 17.28 41.5002C17.396 41.1989 17.6147 40.5935 17.768 40.1549C18.8613 37.0082 20.868 32.9482 23.0907 29.3335C23.9307 27.9709 23.9613 27.6722 24.2587 29.3335C25.668 37.2175 28.128 43.3429 31.1307 48.1069C30.6535 49.5105 30.6034 51.0241 30.9867 52.4562C31.4267 54.0442 32.592 55.6429 33.8467 56.3775C35.3027 57.2295 37.0773 57.5149 38.6733 56.8629L38.744 56.8335C46.5867 63.3055 56.8933 64.0655 60.6667 64.4802C62.472 64.6775 63.5107 64.6615 60.6667 65.3335Z" fill="#8967AA"/>
<path d="M61.4428 69.6174C61.4428 69.6174 63.8961 73.2947 64.1988 73.2947C64.2481 73.2947 64.6814 73.1627 65.1614 73.0027C69.7748 71.464 73.7348 69.6227 77.4255 67.3014C78.3641 66.712 80.4841 65.2894 80.9055 64.968C81.1748 64.7627 81.2281 64.144 81.3121 60.3387C81.3788 57.2827 81.2841 54.544 81.0535 52.9627C80.6201 49.984 80.4095 48.6694 80.1988 47.636C79.9241 46.2867 78.8761 42.44 78.5561 41.6014C78.4401 41.3 78.2188 40.6867 78.0628 40.2387C77.0495 37.3214 75.0094 33.1027 73.0894 29.9587C71.2174 26.8894 71.3054 27.0027 70.4761 26.616C67.4588 25.212 62.9841 23.816 58.4988 22.8787C57.9788 22.7694 57.5014 22.6774 57.4414 22.6734C57.3814 22.6694 56.9334 23.4614 56.4468 24.4347L55.5454 26.2334C55.5361 26.2494 54.9948 26.1947 54.3441 26.112C50.2374 25.588 45.0201 25.6254 40.6548 26.2094C40.5321 26.2257 40.4074 26.2016 40.2996 26.1408C40.1918 26.0799 40.1068 25.9855 40.0574 25.872L39.9774 25.6867C39.8388 25.368 39.4468 24.5587 39.1068 23.8867L38.6468 22.9827C38.6004 22.8909 38.5261 22.8162 38.4346 22.7692C38.3431 22.7223 38.2391 22.7055 38.1374 22.7214C37.9454 22.752 37.3614 22.868 36.8401 22.98C33.1028 23.784 30.0668 24.6894 27.1081 25.8827C24.6254 26.8827 24.7014 26.8347 24.0148 27.8827C21.4348 31.8214 19.0148 36.58 17.7694 40.156C17.6174 40.596 17.3974 41.2 17.2828 41.5027C16.9241 42.4347 15.7894 46.6654 15.5308 48.0294C15.3961 48.7427 15.1948 49.9534 15.0828 50.7214C14.9721 51.488 14.8374 52.408 14.7828 52.764C14.4441 54.988 14.3361 60.2574 14.5668 63.228C14.6828 64.7227 14.6961 64.78 14.9588 64.9987C15.2348 65.228 17.5281 66.772 18.6254 67.4654C20.2708 68.5107 27.5668 72.0054 29.8801 73.0027C30.1352 73.1181 30.3981 73.2157 30.6668 73.2947C30.8788 73.3507 31.0641 73.1974 31.1988 73.024L33.8481 69.6174M64.6108 63.9147C63.2214 64.62 59.4134 65.776 56.6028 66.4574C51.9881 67.5774 45.9401 67.7107 40.8321 66.8094C38.0588 66.32 33.1134 64.94 30.9881 63.9147M57.6534 43.9934C55.5894 44.52 54.0801 46.0227 53.2974 48.3294C52.8708 49.588 52.8708 51.3547 53.2974 52.6147C54.0374 54.7947 55.3508 56.2214 57.2494 56.908C58.6534 57.4187 59.9614 57.3227 61.4441 56.604C65.5734 54.6014 66.3161 48.4574 62.8121 45.2894C61.3694 43.9854 59.5134 43.5187 57.6534 43.9934ZM35.4188 43.9867C34.4508 44.2347 33.9561 44.4867 33.1361 45.1534C31.0561 46.8414 30.2828 49.9054 30.9894 52.4574C31.4294 54.0454 32.5961 55.644 33.8494 56.3787C35.3054 57.232 37.0814 57.516 38.6761 56.864C41.2788 55.8 42.7761 53.2587 42.7761 50.5214C42.7774 49.06 42.6201 48.3907 41.9654 47.0707C41.4721 46.0774 40.2508 44.852 39.3001 44.3987C38.0308 43.7934 36.7214 43.6547 35.4188 43.9867Z" stroke="black" stroke-width="2" stroke-linecap="round"/>
</svg>
