<svg width="62" height="65" viewBox="0 0 62 65" fill="none" xmlns="http://www.w3.org/2000/svg">
<g clip-path="url(#clip0_191_30)">
<path d="M47.235 0.263184H14.6609C6.72411 0.263184 0.290039 7.01896 0.290039 15.3526V49.5554C0.290039 57.8891 6.72411 64.6449 14.6609 64.6449H47.235C55.1718 64.6449 61.6059 57.8891 61.6059 49.5554V15.3526C61.6059 7.01896 55.1718 0.263184 47.235 0.263184Z" fill="url(#paint0_radial_191_30)"/>
<path d="M47.235 0.263184H14.6609C6.72411 0.263184 0.290039 7.01896 0.290039 15.3526V49.5554C0.290039 57.8891 6.72411 64.6449 14.6609 64.6449H47.235C55.1718 64.6449 61.6059 57.8891 61.6059 49.5554V15.3526C61.6059 7.01896 55.1718 0.263184 47.235 0.263184Z" fill="url(#paint1_radial_191_30)"/>
<path d="M30.9503 7.30469C24.4455 7.30469 23.629 7.33461 21.0743 7.45659C18.5244 7.57932 16.7839 8.00308 15.2611 8.62501C13.6855 9.26732 12.3493 10.1267 11.018 11.525C9.68562 12.923 8.8672 14.3261 8.25356 15.9796C7.65956 17.5791 7.2555 19.4074 7.14077 22.0835C7.02652 24.7662 6.99658 25.6238 6.99658 32.454C6.99658 39.2843 7.02532 40.1388 7.14125 42.8212C7.25861 45.4986 7.66219 47.3262 8.25404 48.9252C8.86624 50.5795 9.68466 51.9825 11.0164 53.3803C12.3474 54.7794 13.6836 55.6407 15.2579 56.283C16.782 56.905 18.5228 57.3287 21.0722 57.4515C23.6271 57.5734 24.4429 57.6034 30.9474 57.6034C37.4528 57.6034 38.2667 57.5734 40.8214 57.4515C43.3713 57.3287 45.1137 56.905 46.6378 56.283C48.2126 55.6407 49.5469 54.7794 50.8777 53.3803C52.2101 51.9825 53.0283 50.5795 53.6422 48.9259C54.2309 47.3262 54.6352 45.4981 54.7549 42.8217C54.8697 40.1393 54.8996 39.2843 54.8996 32.454C54.8996 25.6238 54.8697 24.7667 54.7549 22.0841C54.6352 19.4067 54.2309 17.5793 53.6422 15.9804C53.0283 14.3261 52.2101 12.923 50.8777 11.525C49.5455 10.1262 48.2131 9.26682 46.6363 8.62527C45.1094 8.00308 43.3679 7.57906 40.818 7.45659C38.2631 7.33461 37.4497 7.30469 30.9428 7.30469H30.9503ZM28.8016 11.8368C29.4394 11.8358 30.151 11.8368 30.9503 11.8368C37.3455 11.8368 38.1034 11.8609 40.6288 11.9814C42.9641 12.0936 44.2316 12.5033 45.0759 12.8475C46.1937 13.3032 46.9906 13.8482 47.8284 14.7287C48.6667 15.6089 49.1855 16.4471 49.6207 17.6208C49.9486 18.5061 50.3392 19.837 50.4456 22.289C50.5603 24.9402 50.5852 25.7365 50.5852 32.4482C50.5852 39.16 50.5603 39.9565 50.4456 42.6075C50.3388 45.0595 49.9486 46.3904 49.6207 47.2759C49.1867 48.4496 48.6667 49.2853 47.8284 50.165C46.9901 51.0452 46.1942 51.59 45.0759 52.0459C44.2326 52.3917 42.9641 52.8004 40.6288 52.9126C38.1038 53.033 37.3455 53.0592 30.9503 53.0592C24.5547 53.0592 23.7967 53.033 21.2719 52.9126C18.9367 52.7994 17.6691 52.3897 16.8241 52.0454C15.7065 51.5895 14.908 51.0447 14.0697 50.1645C13.2314 49.2843 12.7126 48.4481 12.2774 47.2739C11.9495 46.3884 11.5589 45.0575 11.4525 42.6055C11.3378 39.9542 11.3148 39.158 11.3148 32.442C11.3148 25.7261 11.3378 24.9339 11.4525 22.2827C11.5593 19.8307 11.9495 18.4998 12.2774 17.6133C12.7117 16.4396 13.2314 15.6014 14.0699 14.7212C14.9082 13.8409 15.7065 13.296 16.8244 12.8392C17.6687 12.4934 18.9367 12.0848 21.2719 11.9721C23.4814 11.8672 24.3377 11.8358 28.8016 11.8305V11.8368ZM43.7356 16.0126C42.1488 16.0126 40.8614 17.3631 40.8614 19.0294C40.8614 20.6956 42.1488 22.0473 43.7356 22.0473C45.3224 22.0473 46.6098 20.6956 46.6098 19.0294C46.6098 17.3633 45.3224 16.0116 43.7356 16.0116V16.0126ZM30.9503 19.5387C24.1576 19.5387 18.6502 25.3215 18.6502 32.454C18.6502 39.5866 24.1576 45.3666 30.9503 45.3666C37.7431 45.3666 43.2486 39.5866 43.2486 32.454C43.2486 25.3217 37.7427 19.5387 30.9498 19.5387H30.9503ZM30.9503 24.0708C35.3595 24.0708 38.9342 27.8238 38.9342 32.454C38.9342 37.0837 35.3595 40.8372 30.9503 40.8372C26.5408 40.8372 22.9665 37.0837 22.9665 32.454C22.9665 27.8238 26.5408 24.0708 30.9503 24.0708Z" fill="white"/>
</g>
<defs>
<radialGradient id="paint0_radial_191_30" cx="0" cy="0" r="1" gradientUnits="userSpaceOnUse" gradientTransform="translate(16.5771 69.6035) rotate(-90) scale(63.807 56.5196)">
<stop stop-color="#FFDD55"/>
<stop offset="0.1" stop-color="#FFDD55"/>
<stop offset="0.5" stop-color="#FF543E"/>
<stop offset="1" stop-color="#C837AB"/>
</radialGradient>
<radialGradient id="paint1_radial_191_30" cx="0" cy="0" r="1" gradientUnits="userSpaceOnUse" gradientTransform="translate(-9.98061 4.90093) rotate(79.207) scale(28.471 112.171)">
<stop stop-color="#3771C8"/>
<stop offset="0.128" stop-color="#3771C8"/>
<stop offset="1" stop-color="#6600FF" stop-opacity="0"/>
</radialGradient>
<clipPath id="clip0_191_30">
<rect width="61.3159" height="64.3817" fill="white" transform="translate(0.290039 0.263184)"/>
</clipPath>
</defs>
</svg>
