<svg width="26" height="26" viewBox="0 0 26 26" fill="none" xmlns="http://www.w3.org/2000/svg">
<path d="M11.375 23.8333C5.69107 23.8333 1.08334 18.983 1.08334 13C1.08334 7.01687 5.69107 2.16663 11.375 2.16663C17.0589 2.16663 21.6667 7.01687 21.6667 13C21.6667 18.983 17.0589 23.8333 11.375 23.8333Z" stroke="#FF9900" stroke-width="1.66667" stroke-linecap="round" stroke-linejoin="round"/>
<path d="M14.0833 9.53329C13.394 8.97395 12.5336 8.66803 11.6458 8.66663C9.40225 8.66663 7.58334 10.6058 7.58334 13C7.58334 15.3941 9.40225 17.3333 11.6458 17.3333C12.5602 17.3333 13.4041 17.0105 14.0833 16.4666" stroke="#FF9900" stroke-width="1.66667" stroke-linecap="round" stroke-linejoin="round"/>
<path d="M10.8333 2.16663C15.5274 2.16663 24.9167 3.24996 24.9167 13C24.9167 22.75 15.5274 23.8333 10.8333 23.8333" stroke="#FF9900" stroke-width="1.66667"/>
</svg>
