<svg width="39" height="39" viewBox="0 0 39 39" fill="none" xmlns="http://www.w3.org/2000/svg">
<path fill-rule="evenodd" clip-rule="evenodd" d="M30.8935 3.31348C32.8417 3.31348 34.413 4.88863 34.5059 6.74228V36.5625L30.7965 33.4136L28.7596 31.5599L26.537 29.6232L27.4654 32.6779H8.01366C6.07101 32.6779 4.49414 31.2025 4.49414 29.2477V6.74921C4.49414 4.89557 6.07379 3.31767 8.02059 3.31767H30.8838L30.8935 3.31348ZM22.4008 11.2014H22.3592L22.0794 11.4783C24.9504 12.3088 26.3395 13.6057 26.3395 13.6057C24.4893 12.6811 22.8218 12.2188 21.1543 12.0319C19.9494 11.8451 18.7445 11.9433 17.7266 12.0319H17.4496C16.7987 12.0319 15.4137 12.3088 13.5579 13.0493C12.9111 13.3303 12.54 13.5144 12.54 13.5144C12.54 13.5144 13.9277 12.1274 16.9856 11.3869L16.7986 11.2C16.7986 11.2 14.483 11.1115 11.9832 12.9579C11.9832 12.9579 9.4834 17.3098 9.4834 22.675C9.4834 22.675 10.8684 25.0834 14.6673 25.1748C14.6673 25.1748 15.2212 24.437 15.7821 23.7878C13.6493 23.1401 12.8184 21.8445 12.8184 21.8445C12.8184 21.8445 13.0039 21.9358 13.2823 22.1213H13.3654C13.4069 22.1213 13.4263 22.1421 13.4485 22.1628V22.1711C13.4707 22.1932 13.49 22.2126 13.5316 22.2126C13.9886 22.4009 14.4457 22.5864 14.8196 22.7663C15.6193 23.1085 16.4558 23.3574 17.3125 23.5082C18.6005 23.6951 20.0768 23.7851 21.7582 23.5082C22.5891 23.3214 23.4201 23.1387 24.251 22.7677C24.7912 22.4909 25.456 22.214 26.1858 21.7476C26.1858 21.7476 25.3548 23.0432 23.132 23.6909C23.5891 24.336 24.2331 25.0751 24.2331 25.0751C28.0333 24.9921 29.5097 22.5836 29.5928 22.686C29.5928 17.3292 27.0791 12.969 27.0791 12.969C24.8147 11.2886 22.6958 11.225 22.3218 11.225L22.3994 11.1973L22.4008 11.2014ZM22.6611 17.291C23.6309 17.291 24.4131 18.1197 24.4131 19.1348C24.4131 20.1567 23.6268 20.9854 22.6611 20.9854C21.6955 20.9854 20.9092 20.1567 20.9092 19.143C20.9119 18.121 21.6996 17.2952 22.6611 17.2952V17.291ZM16.3444 17.291C17.31 17.291 18.0908 18.1197 18.0908 19.1348C18.0908 20.1567 17.3045 20.9854 16.3389 20.9854C15.3732 20.9854 14.5869 20.1567 14.5869 19.143C14.5869 18.121 15.3732 17.2952 16.3389 17.2952L16.3444 17.291Z" fill="#213589"/>
</svg>
