<svg width="32" height="32" viewBox="0 0 32 32" fill="none" xmlns="http://www.w3.org/2000/svg">
<path d="M25.4989 10.9995C26.6924 10.9995 27.837 11.4736 28.6809 12.3175C29.5248 13.1614 29.9989 14.306 29.9989 15.4995V25.4995C29.9989 26.693 29.5248 27.8376 28.6809 28.6815C27.837 29.5254 26.6924 29.9995 25.4989 29.9995H15.4989C14.3055 29.9995 13.1609 29.5254 12.317 28.6815C11.473 27.8376 10.9989 26.693 10.9989 25.4995V15.4995C10.9989 14.306 11.473 13.1614 12.317 12.3175C13.1609 11.4736 14.3055 10.9995 15.4989 10.9995H25.4989ZM16.9989 20.9995C16.2033 20.9995 15.4402 21.3156 14.8776 21.8782C14.315 22.4408 13.9989 23.2038 13.9989 23.9995C13.9989 24.7951 14.315 25.5582 14.8776 26.1208C15.4402 26.6834 16.2033 26.9995 16.9989 26.9995C17.7946 26.9995 18.5577 26.6834 19.1203 26.1208C19.6829 25.5582 19.9989 24.7951 19.9989 23.9995C19.9989 23.2038 19.6829 22.4408 19.1203 21.8782C18.5577 21.3156 17.7946 20.9995 16.9989 20.9995ZM16.9989 22.9995C17.2642 22.9995 17.5185 23.1049 17.706 23.2924C17.8936 23.4799 17.9989 23.7343 17.9989 23.9995C17.9989 24.2647 17.8936 24.5191 17.706 24.7066C17.5185 24.8941 17.2642 24.9995 16.9989 24.9995C16.7337 24.9995 16.4794 24.8941 16.2918 24.7066C16.1043 24.5191 15.9989 24.2647 15.9989 23.9995C15.9989 23.7343 16.1043 23.4799 16.2918 23.2924C16.4794 23.1049 16.7337 22.9995 16.9989 22.9995ZM22.9989 22.9995C22.7337 22.9995 22.4794 23.1049 22.2918 23.2924C22.1043 23.4799 21.9989 23.7343 21.9989 23.9995C21.9989 24.2647 22.1043 24.5191 22.2918 24.7066C22.4794 24.8941 22.7337 24.9995 22.9989 24.9995H25.9989C26.2642 24.9995 26.5185 24.8941 26.706 24.7066C26.8936 24.5191 26.9989 24.2647 26.9989 23.9995C26.9989 23.7343 26.8936 23.4799 26.706 23.2924C26.5185 23.1049 26.2642 22.9995 25.9989 22.9995H22.9989ZM14.9949 2.15349C15.5658 2.00045 16.1612 1.96136 16.7472 2.03844C17.3331 2.11553 17.8982 2.30729 18.41 2.60278C18.9219 2.89826 19.3705 3.29168 19.7303 3.76056C20.0901 4.22945 20.354 4.76461 20.5069 5.33549L21.6219 9.49949H15.4999C13.9086 9.49949 12.3825 10.1316 11.2573 11.2569C10.1321 12.3821 9.49994 13.9082 9.49994 15.4995V23.2265C8.44345 23.3236 7.38661 23.0444 6.51603 22.438C5.64545 21.8316 5.0171 20.9371 4.74194 19.9125L2.15294 10.2525C1.84449 9.09974 2.00654 7.87166 2.60345 6.83837C3.20036 5.80508 4.18324 5.05118 5.33594 4.74249L14.9949 2.15349ZM16.9989 13.9995C16.2033 13.9995 15.4402 14.3156 14.8776 14.8782C14.315 15.4408 13.9989 16.2038 13.9989 16.9995C13.9989 17.7951 14.315 18.5582 14.8776 19.1208C15.4402 19.6834 16.2033 19.9995 16.9989 19.9995C17.7946 19.9995 18.5577 19.6834 19.1203 19.1208C19.6829 18.5582 19.9989 17.7951 19.9989 16.9995C19.9989 16.2038 19.6829 15.4408 19.1203 14.8782C18.5577 14.3156 17.7946 13.9995 16.9989 13.9995ZM16.9989 15.9995C17.2642 15.9995 17.5185 16.1049 17.706 16.2924C17.8936 16.4799 17.9989 16.7343 17.9989 16.9995C17.9989 17.2647 17.8936 17.5191 17.706 17.7066C17.5185 17.8941 17.2642 17.9995 16.9989 17.9995C16.7337 17.9995 16.4794 17.8941 16.2918 17.7066C16.1043 17.5191 15.9989 17.2647 15.9989 16.9995C15.9989 16.7343 16.1043 16.4799 16.2918 16.2924C16.4794 16.1049 16.7337 15.9995 16.9989 15.9995ZM22.9989 15.9995C22.7337 15.9995 22.4794 16.1049 22.2918 16.2924C22.1043 16.4799 21.9989 16.7343 21.9989 16.9995C21.9989 17.2647 22.1043 17.5191 22.2918 17.7066C22.4794 17.8941 22.7337 17.9995 22.9989 17.9995H25.9989C26.2642 17.9995 26.5185 17.8941 26.706 17.7066C26.8936 17.5191 26.9989 17.2647 26.9989 16.9995C26.9989 16.7343 26.8936 16.4799 26.706 16.2924C26.5185 16.1049 26.2642 15.9995 25.9989 15.9995H22.9989Z" fill="#63B1BB"/>
</svg>
