<svg width="30" height="30" viewBox="0 0 30 30" fill="none" xmlns="http://www.w3.org/2000/svg">
<path fill-rule="evenodd" clip-rule="evenodd" d="M20.25 7.40698C22.1032 8.47755 23.5851 10.0889 24.497 12.0252C25.4089 13.9614 25.7074 16.1301 25.3523 18.2408C24.9973 20.3514 24.0058 22.3031 22.5105 23.8344C21.0153 25.3658 19.0878 26.4037 16.9863 26.809C14.8848 27.2143 12.7096 26.9677 10.7521 26.1023C8.79459 25.2369 7.14831 23.7939 6.03379 21.9668C4.91927 20.1396 4.38974 18.0154 4.51613 15.8789C4.64253 13.7424 5.41881 11.6955 6.74098 10.0125C7.04398 9.62698 7.62598 9.68548 7.93048 10.071C8.34848 10.601 8.81998 11.078 9.34498 11.502C9.84298 11.9055 10.524 11.4285 10.5045 10.788L10.5 10.5C10.5 9.12148 10.809 7.81648 11.3625 6.64948C12.1634 4.96425 13.4659 3.56796 15.0915 2.65198C15.462 2.44198 15.9165 2.62798 16.107 3.00898C17.025 4.85078 18.4662 6.38067 20.25 7.40698ZM21 18C21 19.5913 20.3678 21.1174 19.2426 22.2426C18.1174 23.3678 16.5913 24 15 24C12.1305 24 9.71998 21.903 9.13498 19.227C8.99548 18.5835 9.79498 18.2625 10.356 18.6075C11.0867 19.058 11.9057 19.3465 12.7575 19.4535C13.212 19.5105 13.554 19.0935 13.5225 18.6375C13.3583 16.3671 14.0635 14.1193 15.495 12.3495C15.5712 12.2551 15.6715 12.1829 15.7853 12.1407C15.899 12.0985 16.0221 12.0877 16.1415 12.1095C17.5093 12.3745 18.7422 13.1073 19.6287 14.1821C20.5152 15.2569 21 16.6067 21 18Z" fill="#DC3545"/>
</svg>
