<svg width="39" height="39" viewBox="0 0 39 39" fill="none" xmlns="http://www.w3.org/2000/svg">
<path d="M32.5 27.625C33.362 27.625 34.1886 27.2826 34.7981 26.6731C35.4076 26.0636 35.75 25.237 35.75 24.375V6.5C35.75 5.63805 35.4076 4.8114 34.7981 4.2019C34.1886 3.59241 33.362 3.25 32.5 3.25H15.3725C15.9412 4.24125 16.25 5.3625 16.25 6.5H32.5V24.375H17.875V27.625M24.375 11.375V14.625H14.625V35.75H11.375V26H8.125V35.75H4.875V22.75H2.4375V14.625C2.4375 13.763 2.77991 12.9364 3.3894 12.3269C3.9989 11.7174 4.82555 11.375 5.6875 11.375H24.375ZM13 6.5C13 7.36195 12.6576 8.1886 12.0481 8.7981C11.4386 9.40759 10.612 9.75 9.75 9.75C8.88805 9.75 8.0614 9.40759 7.4519 8.7981C6.84241 8.1886 6.5 7.36195 6.5 6.5C6.5 5.63805 6.84241 4.8114 7.4519 4.2019C8.0614 3.59241 8.88805 3.25 9.75 3.25C10.612 3.25 11.4386 3.59241 12.0481 4.2019C12.6576 4.8114 13 5.63805 13 6.5Z" fill="black"/>
</svg>
