<svg width="38" height="38" viewBox="0 0 38 38" fill="none" xmlns="http://www.w3.org/2000/svg">
<rect width="38" height="38" rx="15" fill="white"/>
<path d="M33.7113 11.5615C33.5378 10.9081 33.1957 10.3118 32.7192 9.83231C32.2428 9.35278 31.6487 9.00686 30.9964 8.8292C28.6019 8.1832 19 8.1832 19 8.1832C19 8.1832 9.39817 8.1832 7.00364 8.8292C6.3514 9.00686 5.7573 9.35278 5.28082 9.83231C4.80435 10.3118 4.46224 10.9081 4.28875 11.5615C3.64697 13.9713 3.64697 19 3.64697 19C3.64697 19 3.64697 24.0287 4.28875 26.439C4.46224 27.0924 4.80435 27.6887 5.28082 28.1682C5.7573 28.6478 6.3514 28.9937 7.00364 29.1713C9.39817 29.8168 19 29.8168 19 29.8168C19 29.8168 28.6019 29.8168 30.9964 29.1713C31.6487 28.9937 32.2428 28.6478 32.7192 28.1682C33.1957 27.6887 33.5378 27.0924 33.7113 26.439C34.3531 24.0287 34.3531 19 34.3531 19C34.3531 19 34.3531 13.9713 33.7113 11.5615Z" fill="#EA5A47"/>
<path d="M15.8597 23.5653L23.8851 19L15.8597 14.4347V23.5653Z" fill="white"/>
<path d="M33.7113 11.5615C33.5378 10.9081 33.1957 10.3118 32.7192 9.83231C32.2428 9.35278 31.6487 9.00686 30.9964 8.8292C28.6019 8.1832 19 8.1832 19 8.1832C19 8.1832 9.39817 8.1832 7.00364 8.8292C6.3514 9.00686 5.7573 9.35278 5.28082 9.83231C4.80435 10.3118 4.46224 10.9081 4.28875 11.5615C3.64697 13.9713 3.64697 19 3.64697 19C3.64697 19 3.64697 24.0287 4.28875 26.439C4.46224 27.0924 4.80435 27.6887 5.28082 28.1682C5.7573 28.6478 6.3514 28.9937 7.00364 29.1713C9.39817 29.8168 19 29.8168 19 29.8168C19 29.8168 28.6019 29.8168 30.9964 29.1713C31.6487 28.9937 32.2428 28.6478 32.7192 28.1682C33.1957 27.6887 33.5378 27.0924 33.7113 26.439C34.3531 24.0287 34.3531 19 34.3531 19C34.3531 19 34.3531 13.9713 33.7113 11.5615Z" stroke="black" stroke-width="2" stroke-miterlimit="10"/>
<path d="M15.8597 23.5653L23.8851 19L15.8597 14.4347V23.5653Z" stroke="black" stroke-width="2" stroke-miterlimit="10" stroke-linecap="round" stroke-linejoin="round"/>
</svg>
