<svg width="38" height="38" viewBox="0 0 38 38" fill="none" xmlns="http://www.w3.org/2000/svg">
<path fill-rule="evenodd" clip-rule="evenodd" d="M22.8206 17.414C22.0041 17.6225 21.4061 18.2173 21.0963 19.1304C20.9274 19.6286 20.9274 20.3279 21.0963 20.8266C21.3898 21.6896 21.9091 22.2543 22.6607 22.5266C23.2164 22.7282 23.7347 22.6902 24.3216 22.4052C25.9556 21.613 26.2495 19.1805 24.8625 17.927C24.2915 17.4109 23.5568 17.2261 22.8206 17.414ZM14.0188 17.4114C13.6357 17.5096 13.4399 17.6093 13.1153 17.8732C12.2925 18.5414 11.9858 19.7542 12.2656 20.7644C12.4397 21.3929 12.9015 22.0258 13.3976 22.3166C13.974 22.6543 14.677 22.7668 15.3082 22.5087C16.3389 22.0875 16.9311 21.0816 16.9316 19.998C16.9316 19.4196 16.8694 19.1546 16.6102 18.6321C16.4149 18.2389 15.9315 17.7539 15.5557 17.5745C15.0527 17.3349 14.5345 17.28 14.0188 17.4114Z" fill="white"/>
<path fill-rule="evenodd" clip-rule="evenodd" d="M23.1557 9.05345C24.9311 9.42448 26.7024 9.97706 27.8967 10.5333C27.9743 10.5692 28.0318 10.5946 28.0836 10.6278C28.2525 10.735 28.3654 10.9286 28.9317 11.856C29.6917 13.101 30.4992 14.7703 30.9003 15.9251C30.9615 16.103 31.0491 16.3458 31.0951 16.465C31.2217 16.7965 31.6366 18.3191 31.7453 18.8532C31.8287 19.2623 31.9121 19.7832 32.0836 20.9622C32.1749 21.5882 32.2129 22.6722 32.186 23.8814C32.1527 25.3876 32.1316 25.6325 32.0245 25.7143C31.8582 25.841 31.0191 26.4041 30.647 26.638C29.1871 27.5563 27.6191 28.2851 25.793 28.8947C25.603 28.9581 25.4315 29.0098 25.412 29.0098C25.2953 29.0098 24.3691 27.626 24.3231 27.5573L24.3189 27.551L23.3351 26.06C23.0143 26.1498 22.6965 26.2331 22.4052 26.3039C20.5786 26.7467 18.1846 26.8 16.1626 26.4432C15.6072 26.3388 15.0564 26.211 14.5118 26.06L13.3981 27.5547L12.2661 29.0098C12.2661 29.0098 12.2661 29.0488 11.8275 28.8947C10.9118 28.5 8.02431 27.1161 7.37198 26.7029C6.93815 26.4279 6.03037 25.8167 5.92112 25.7265C5.81715 25.6399 5.81187 25.6172 5.76595 25.0256C5.67465 23.8497 5.7174 21.7639 5.85145 20.8831C5.89167 20.6136 5.93125 20.3441 5.9702 20.0745C6.02293 19.7185 6.08205 19.3634 6.14754 19.0095C6.24992 18.469 6.69906 16.7944 6.84051 16.4255C6.88643 16.3062 6.97351 16.0666 7.03367 15.8924C7.52662 14.4769 8.48507 12.5938 9.50579 11.0342C9.59815 10.8933 9.65568 10.802 9.72956 10.7281C9.87365 10.5845 10.0811 10.5043 10.7302 10.2425C11.9008 9.7707 13.1031 9.41234 14.5825 9.09356C14.7888 9.04923 15.0205 9.00331 15.096 8.99117C15.1362 8.9849 15.1774 8.99153 15.2136 9.01012C15.2499 9.0287 15.2793 9.05828 15.2976 9.09462L15.4797 9.45298C15.5998 9.68792 15.7147 9.92547 15.8243 10.1655L15.856 10.2383C15.8755 10.2832 15.9092 10.3206 15.9519 10.3447C15.9945 10.3688 16.0439 10.3783 16.0925 10.3718C17.8204 10.1407 19.8856 10.1259 21.5111 10.3333C21.7687 10.3666 21.983 10.3882 21.9861 10.3813C21.9904 10.375 22.1508 10.0546 22.3435 9.66937C22.5361 9.28409 22.7129 8.97059 22.7372 8.97217C22.7609 8.97376 22.9493 9.01017 23.1557 9.05345ZM21.0963 19.1277C21.4066 18.2146 22.0041 17.6203 22.8206 17.4113C23.5563 17.2235 24.2915 17.4082 24.8631 17.9243C26.2495 19.1783 25.9556 21.6103 24.321 22.4031C23.7341 22.6881 23.2164 22.7255 22.6606 22.5245C21.9091 22.2516 21.3892 21.6869 21.0963 20.824C20.9274 20.3252 20.9274 19.6259 21.0963 19.1277ZM13.1158 17.8705C13.4404 17.6066 13.6362 17.5069 14.0193 17.4092C14.535 17.2773 15.0533 17.3327 15.5557 17.5723C15.932 17.7518 16.416 18.2363 16.6113 18.6295C16.8699 19.152 16.9321 19.4169 16.9316 19.9953C16.9316 21.0794 16.3389 22.0853 15.3087 22.5065C14.6775 22.7646 13.9745 22.6516 13.3981 22.3144C12.902 22.0241 12.4402 21.3908 12.2661 20.7622C11.9863 19.7515 12.2925 18.5387 13.1158 17.8705Z" fill="#B399C8"/>
<path d="M24.0139 25.8611C23.693 25.9508 22.6955 26.2353 22.4041 26.3055C20.578 26.7488 18.184 26.8016 16.1621 26.4448C15.6066 26.3406 15.0558 26.2128 14.5112 26.0617L13.3976 27.5563L12.2655 29.0119C12.2655 29.0119 12.2655 29.0505 11.8269 28.8963C10.9113 28.5016 8.02325 27.1177 7.37144 26.705C6.93708 26.4295 6.02983 25.8183 5.92006 25.7286C5.81608 25.6415 5.81133 25.6188 5.76542 25.0272C5.67358 23.8513 5.71686 21.7655 5.85092 20.8852C5.87203 20.7438 5.92586 20.3801 5.96967 20.0761C6.02239 19.7201 6.08151 19.365 6.147 19.0111C6.24939 18.4712 6.69853 16.796 6.83997 16.4271C6.88589 16.3078 6.97244 16.0682 7.03314 15.8945C7.46592 14.649 8.26022 13.0419 9.14003 11.6111C9.47253 11.0717 9.48467 10.9535 9.60236 11.6111C10.1602 14.7318 11.134 17.1565 12.3225 19.0422C12.1336 19.5978 12.1138 20.1969 12.2655 20.7638C12.4397 21.3924 12.901 22.0252 13.3976 22.316C13.9739 22.6533 14.6764 22.7662 15.3082 22.5081L15.3361 22.4965C18.4405 25.0583 22.5202 25.3592 24.0139 25.5233C24.7285 25.6014 25.1396 25.5951 24.0139 25.8611Z" fill="#8967AA"/>
<path d="M24.321 27.5569C24.321 27.5569 25.2921 29.0125 25.4119 29.0125C25.4314 29.0125 25.603 28.9602 25.793 28.8969C27.6191 28.2878 29.1866 27.559 30.6475 26.6401C31.019 26.4068 31.8582 25.8437 32.025 25.7165C32.1316 25.6352 32.1527 25.3903 32.1859 23.8841C32.2123 22.6744 32.1749 21.5903 32.0836 20.9644C31.912 19.7853 31.8286 19.2649 31.7453 18.8559C31.6365 18.3218 31.2217 16.7992 31.095 16.4672C31.0491 16.3479 30.9615 16.1051 30.8998 15.9278C30.4986 14.773 29.6911 13.1031 28.9311 11.8586C28.1901 10.6437 28.225 10.6886 27.8967 10.5355C26.7023 9.97975 24.9311 9.42717 23.1557 9.05614C22.9498 9.01286 22.7609 8.97644 22.7371 8.97486C22.7134 8.97328 22.5361 9.28678 22.3434 9.67205L21.9866 10.384C21.9829 10.3904 21.7687 10.3687 21.5111 10.336C19.8856 10.1286 17.8204 10.1434 16.0924 10.3745C16.0438 10.381 15.9945 10.3715 15.9518 10.3474C15.9092 10.3233 15.8755 10.2859 15.856 10.241L15.8243 10.1676C15.7694 10.0415 15.6143 9.72114 15.4797 9.45514L15.2976 9.0973C15.2792 9.06097 15.2498 9.03139 15.2136 9.0128C15.1774 8.99422 15.1362 8.98759 15.096 8.99386C15.02 9.006 14.7888 9.05192 14.5824 9.09625C13.1031 9.4145 11.9013 9.77286 10.7302 10.2452C9.74747 10.6411 9.77756 10.6221 9.50575 11.0369C8.4845 12.5959 7.52658 14.4796 7.03364 15.8951C6.97347 16.0692 6.88639 16.3083 6.841 16.4281C6.69903 16.7971 6.24989 18.4717 6.1475 19.0116C6.09419 19.294 6.0145 19.7732 5.97017 20.0772C5.92636 20.3807 5.87306 20.7448 5.85142 20.8857C5.71736 21.7661 5.67461 23.8519 5.76592 25.0277C5.81183 25.6194 5.81711 25.6421 5.92108 25.7286C6.03033 25.8194 6.93811 26.4306 7.37247 26.705C8.02375 27.1188 10.9117 28.5021 11.8274 28.8969C11.9284 28.9426 12.0325 28.9812 12.1388 29.0125C12.2227 29.0346 12.2961 28.9739 12.3494 28.9053L13.3981 27.5569M25.575 25.2996C25.0251 25.5787 23.5177 26.0363 22.4052 26.306C20.5785 26.7494 18.1845 26.8021 16.1626 26.4454C15.0648 26.2517 13.1073 25.7054 12.266 25.2996M22.8211 17.414C22.0041 17.6225 21.4066 18.2173 21.0968 19.1304C20.9279 19.6286 20.9279 20.3279 21.0968 20.8266C21.3897 21.6896 21.9096 22.2543 22.6611 22.5261C23.2169 22.7282 23.7346 22.6902 24.3215 22.4057C25.9561 21.613 26.25 19.181 24.863 17.927C24.292 17.4109 23.5573 17.2261 22.8211 17.414ZM14.0198 17.4114C13.6367 17.5096 13.4409 17.6093 13.1163 17.8732C12.2929 18.5414 11.9868 19.7542 12.2666 20.7644C12.4407 21.3929 12.9025 22.0257 13.3986 22.3166C13.975 22.6543 14.678 22.7667 15.3092 22.5087C16.3394 22.0875 16.9321 21.0816 16.9321 19.998C16.9326 19.4196 16.8704 19.1546 16.6112 18.6321C16.4159 18.2389 15.9325 17.7539 15.5562 17.5745C15.0537 17.3349 14.5355 17.28 14.0198 17.4114Z" stroke="black" stroke-width="2" stroke-linecap="round"/>
</svg>
