<svg width="38" height="38" viewBox="0 0 38 38" fill="none" xmlns="http://www.w3.org/2000/svg">
<rect width="38" height="38" rx="15" fill="white"/>
<path d="M26.914 11.3314C26.9177 11.7488 26.7568 12.1508 26.4663 12.4505C26.1758 12.7502 25.7789 12.9234 25.3616 12.9326C24.9443 12.9418 24.5401 12.7863 24.2366 12.4998C23.9331 12.2133 23.7547 11.8187 23.7399 11.4016L20.3632 10.6838L19.3657 15.4549C21.7212 15.5394 23.8354 16.2619 25.3634 17.3803C25.6035 17.1483 25.892 16.9722 26.2081 16.8645C26.5241 16.7569 26.8601 16.7203 27.1919 16.7575C27.5238 16.7947 27.8433 16.9047 28.1277 17.0796C28.4122 17.2546 28.6545 17.4902 28.8373 17.7696C29.0202 18.049 29.1391 18.3653 29.1856 18.696C29.2321 19.0266 29.205 19.3635 29.1063 19.6825C29.0076 20.0015 28.8396 20.2947 28.6145 20.5413C28.3893 20.7879 28.1125 20.9817 27.8038 21.109C27.8302 21.3074 27.8444 21.508 27.8444 21.7107C27.8444 25.1713 23.8402 27.9759 18.9007 27.9759C13.9618 27.9759 9.95753 25.1713 9.95753 21.7112C9.95753 21.4916 9.97336 21.2747 10.005 21.0604C9.71041 20.9207 9.44939 20.719 9.23977 20.4692C9.03014 20.2194 8.87684 19.9274 8.79031 19.613C8.70377 19.2986 8.68605 18.9692 8.73833 18.6473C8.79062 18.3254 8.91169 18.0186 9.09329 17.7478C9.27489 17.4769 9.51276 17.2484 9.79067 17.0778C10.0686 16.9072 10.38 16.7985 10.7037 16.7592C11.0274 16.7199 11.3558 16.7508 11.6665 16.8499C11.9772 16.9489 12.2629 17.1138 12.5041 17.3333C14.0515 16.2234 16.1827 15.5151 18.5503 15.4512L19.6597 10.1418C19.6724 10.0807 19.6992 10.0234 19.7381 9.9745C19.777 9.92564 19.8267 9.88659 19.8834 9.86047C19.9665 9.81592 20.0626 9.80227 20.1547 9.82195L23.9062 10.6194C24.0661 10.2993 24.3295 10.0425 24.6536 9.89087C24.9777 9.7392 25.3436 9.7015 25.6918 9.78387C26.0401 9.86625 26.3503 10.0639 26.5721 10.3447C26.794 10.6255 26.9144 10.9735 26.914 11.3314Z" fill="white"/>
<path fill-rule="evenodd" clip-rule="evenodd" d="M18.9999 34.3056C27.4528 34.3056 34.3054 27.4529 34.3054 19C34.3054 10.5471 27.4528 3.69444 18.9999 3.69444C10.547 3.69444 3.69434 10.5471 3.69434 19C3.69434 27.4529 10.547 34.3056 18.9999 34.3056ZM26.9139 11.3314C26.9111 11.7446 26.7473 12.1404 26.4573 12.4348C26.1674 12.7292 25.7741 12.899 25.361 12.9082C24.9479 12.9173 24.5475 12.765 24.2448 12.4837C23.9421 12.2025 23.761 11.8143 23.7399 11.4016L20.3631 10.6838L19.3656 15.4549C21.7211 15.5394 23.8354 16.2619 25.3633 17.3802C25.6035 17.1483 25.8919 16.9722 26.208 16.8645C26.5241 16.7569 26.8601 16.7203 27.1919 16.7575C27.5237 16.7947 27.8433 16.9047 28.1277 17.0796C28.4121 17.2546 28.6544 17.4902 28.8373 17.7696C29.0201 18.049 29.1391 18.3653 29.1856 18.6959C29.232 19.0266 29.205 19.3635 29.1062 19.6825C29.0075 20.0014 28.8396 20.2947 28.6144 20.5413C28.3893 20.7879 28.1125 20.9817 27.8038 21.109C27.8301 21.3074 27.8444 21.508 27.8444 21.7107C27.8444 25.1713 23.8401 27.9759 18.9007 27.9759C13.9617 27.9759 9.95748 25.1713 9.95748 21.7112C9.95748 21.4916 9.97331 21.2747 10.005 21.0604C9.71036 20.9207 9.44934 20.719 9.23971 20.4692C9.03009 20.2194 8.87679 19.9274 8.79025 19.613C8.70372 19.2986 8.68599 18.9692 8.73828 18.6473C8.79056 18.3254 8.91163 18.0186 9.09324 17.7478C9.27484 17.4769 9.5127 17.2484 9.79062 17.0778C10.0685 16.9072 10.38 16.7985 10.7037 16.7592C11.0274 16.7199 11.3558 16.7508 11.6665 16.8498C11.9771 16.9489 12.2628 17.1138 12.504 17.3333C14.0514 16.2234 16.1826 15.5151 18.5502 15.4512L19.6596 10.1418C19.6723 10.0806 19.6992 10.0234 19.738 9.9745C19.7769 9.92564 19.8267 9.88658 19.8834 9.86047C19.9664 9.81597 20.0625 9.80231 20.1547 9.82194L23.9061 10.6194C24.0664 10.2997 24.3298 10.0435 24.6538 9.89215C24.9778 9.74083 25.3434 9.70328 25.6914 9.78559C26.0394 9.8679 26.3494 10.0653 26.5713 10.3457C26.7932 10.6261 26.9139 10.9738 26.9139 11.3314Z" fill="#EA5A47"/>
<path d="M15.2332 24.3897C16.9616 25.9023 21.0662 25.9023 22.5782 24.3897" stroke="black" stroke-width="1.75" stroke-linecap="round"/>
<path d="M22.5145 21.6721C23.0975 21.6721 23.5701 21.1996 23.5701 20.6166C23.5701 20.0336 23.0975 19.561 22.5145 19.561C21.9316 19.561 21.459 20.0336 21.459 20.6166C21.459 21.1996 21.9316 21.6721 22.5145 21.6721Z" fill="black"/>
<path d="M15.4818 21.6721C16.0648 21.6721 16.5374 21.1996 16.5374 20.6166C16.5374 20.0336 16.0648 19.561 15.4818 19.561C14.8989 19.561 14.4263 20.0336 14.4263 20.6166C14.4263 21.1996 14.8989 21.6721 15.4818 21.6721Z" fill="black"/>
<path d="M33.7777 19C33.7777 27.1616 27.1615 33.7778 18.9999 33.7778C10.8384 33.7778 4.22217 27.1616 4.22217 19C4.22217 10.8385 10.8384 4.22223 18.9999 4.22223C27.1615 4.22223 33.7777 10.8385 33.7777 19ZM25.3264 13.4467C25.6853 13.4468 26.0383 13.3555 26.3522 13.1816C26.6661 13.0076 26.9306 12.7567 27.1209 12.4524C27.3111 12.1481 27.4208 11.8004 27.4396 11.442C27.4585 11.0836 27.3858 10.7263 27.2286 10.4037C27.0713 10.0811 26.8346 9.80382 26.5407 9.59791C26.2467 9.392 25.9052 9.26424 25.5483 9.22665C25.1914 9.18905 24.8308 9.24286 24.5004 9.38301C24.17 9.52316 23.8807 9.74504 23.6597 10.0278L20.2645 9.30578C20.0555 9.26119 19.8375 9.29028 19.6475 9.38812C19.3984 9.50845 19.2042 9.74015 19.143 10.0341L18.1175 14.9414C15.9811 15.066 14.0325 15.6972 12.5231 16.6804C12.2166 16.4781 11.8732 16.3382 11.5127 16.2686C11.1521 16.199 10.7814 16.2011 10.4216 16.2748C10.0619 16.3485 9.72018 16.4923 9.41601 16.6981C9.11185 16.9038 8.85118 17.1675 8.6489 17.4739C8.24039 18.0929 8.09448 18.8488 8.2433 19.5754C8.39211 20.3019 8.82345 20.9396 9.44242 21.3481C9.43379 21.4689 9.42956 21.5901 9.42975 21.7112C9.42975 23.6603 10.5581 25.3713 12.2745 26.5731C13.9913 27.7764 16.3363 28.5037 18.9007 28.5037C21.4657 28.5037 23.8101 27.7764 25.528 26.5731C27.2433 25.3713 28.3722 23.6603 28.3722 21.7112C28.3722 21.613 28.3696 21.5154 28.3638 21.4178C28.6875 21.2263 28.9693 20.9714 29.1923 20.6685C29.4153 20.3655 29.5748 20.0207 29.6614 19.6547C29.748 19.2886 29.7598 18.9089 29.6962 18.5381C29.6326 18.1674 29.4948 17.8133 29.2911 17.4971C29.0875 17.1808 28.8221 16.9089 28.5109 16.6977C28.1997 16.4864 27.849 16.3401 27.48 16.2675C27.1109 16.1949 26.731 16.1975 26.3629 16.2751C25.9949 16.3528 25.6463 16.5039 25.338 16.7195C23.8956 15.7642 22.0447 15.133 20.0075 14.9641L20.7712 11.3098L23.2728 11.8418C23.387 12.2999 23.6512 12.7067 24.0232 12.9974C24.3952 13.2881 24.8537 13.4461 25.3259 13.4462L25.3264 13.4467Z" stroke="black" stroke-width="2"/>
</svg>
