<svg width="26" height="26" viewBox="0 0 26 26" fill="none" xmlns="http://www.w3.org/2000/svg">
<g clip-path="url(#clip0_718_148)">
<path d="M13 0C5.83158 0 0 5.83158 0 13C0 20.1684 5.83158 26 13 26C20.1684 26 26 20.1684 26 13H23.075C23.075 18.5553 18.5553 23.075 13 23.075C7.44467 23.075 2.925 18.5553 2.925 13C2.925 7.44467 7.44467 2.925 13 2.925V0ZM21.0167 2.79825L12.8863 12.9502L9.087 9.83667L6.91817 12.4757L12.0543 16.6877C12.2287 16.8316 12.4301 16.9393 12.6467 17.0046C12.8633 17.0699 13.0906 17.0915 13.3156 17.068C13.5406 17.0445 13.7586 16.9764 13.957 16.8678C14.1554 16.7592 14.3302 16.6121 14.4712 16.4353L23.6838 4.9335L21.0167 2.79825Z" fill="black"/>
</g>
<defs>
<clipPath id="clip0_718_148">
<rect width="26" height="26" fill="white"/>
</clipPath>
</defs>
</svg>
