<svg width="39" height="34" viewBox="0 0 39 34" fill="none" xmlns="http://www.w3.org/2000/svg">
<g clip-path="url(#clip0_745_151)">
<mask id="path-1-inside-1_745_151" fill="white">
<path d="M12.2712 29.5088L11.8387 29.1413L11.2537 29.0913C10.5237 29.0313 10.1837 28.965 9.77122 28.8013L9.44872 28.6725L9.10122 28.81C8.80622 28.9288 8.08372 29.0363 7.53497 29.045C7.50497 29.045 7.45497 28.975 7.42372 28.8888C7.38872 28.8013 7.32747 28.7175 7.27997 28.7013C7.23622 28.6863 6.90872 28.7588 6.54622 28.8675L5.88997 29.065L5.65372 28.9513C5.35622 28.8063 5.23122 28.8088 4.73372 28.96C4.35497 29.0775 4.30747 29.08 4.00372 29.015C3.54997 28.92 3.17122 28.9263 2.31747 29.0475C1.38747 29.18 1.36747 29.18 1.09372 28.9925C0.949269 28.8803 0.768781 28.8247 0.58622 28.8363C0.33247 28.8363 0.30497 28.825 0.27622 28.7063C0.264493 28.5882 0.282989 28.469 0.32997 28.36C0.46997 28.0125 0.52497 27.17 0.53997 25.1563L0.55497 23.275L0.81872 23.2938L1.07872 23.3125L1.11872 22.225C1.13872 21.6275 1.15872 20.7638 1.16247 20.3075L1.16872 19.4825L1.02872 19.3825C0.64747 19.1038 0.66497 19.1438 0.50622 18.235C0.41896 17.726 0.358045 17.2128 0.32372 16.6975C0.29247 16.0325 0.29497 16.0138 0.41747 15.875L0.54247 15.7325L0.85247 15.9988C1.02497 16.145 1.17122 16.2413 1.18497 16.2113C1.22997 16.07 1.08872 14.385 1.01622 14.1725C0.968554 14.0494 0.940708 13.9194 0.93372 13.7875C0.93372 13.7025 0.84872 13.4725 0.74247 13.2725L0.55372 12.9113L0.61747 12.27C0.70122 11.42 0.59372 10.795 0.23747 10.0425L0.0812199 9.70378L0.17997 8.86253L0.28497 8.02003L0.17497 7.58378L0.0612199 7.14628L0.19247 6.65753L0.31872 6.16628L0.17497 5.69128L0.0262199 5.21753L0.20497 4.71753C0.38122 4.23128 0.38497 4.20503 0.38122 3.41253C0.37872 2.52003 0.28497 1.93878 0.0999699 1.70628C-0.0587801 1.50378 -0.0325301 1.36503 0.20372 1.14878C0.31622 1.04253 0.40997 0.907529 0.40997 0.851279C0.40997 0.765029 0.44872 0.748779 0.68622 0.743779C0.83622 0.743779 1.29872 0.703779 1.71497 0.656279L2.47372 0.565029L3.46622 0.711279C4.45622 0.855029 4.45747 0.855029 5.81497 0.797529L7.17497 0.738779L7.49622 0.932529L7.82122 1.12378L9.13997 1.10503L10.46 1.08628L10.905 0.925029C11.1475 0.836279 11.5362 0.681279 11.7675 0.576279C12.0644 0.44967 12.3692 0.342364 12.68 0.255029L13.1775 0.123779L13.82 0.326279L14.4625 0.531279L15.0175 0.345029L15.57 0.158779L16.1662 0.356279C16.495 0.463779 17.105 0.728779 17.5275 0.946279L18.2912 1.33628L19.0912 1.31378C19.6975 1.29503 19.905 1.27253 19.9375 1.21628C20.0049 1.05087 20.0605 0.880856 20.1037 0.707529L20.2225 0.268779L20.9787 0.293779C21.545 0.313779 22.0525 0.373779 22.98 0.536279L24.2237 0.756279L24.5475 0.626279C24.7225 0.555029 25.0575 0.468779 25.2912 0.438779C25.6825 0.386279 25.75 0.392529 26.2837 0.527529C26.7812 0.652529 26.9525 0.671279 27.6362 0.671279C28.0675 0.671279 28.515 0.652529 28.6337 0.632529C28.8375 0.597529 28.8712 0.611279 29.285 0.910029C29.5262 1.08253 29.74 1.25128 29.7587 1.28753C29.78 1.32128 29.825 1.50378 29.855 1.69253L29.9125 2.04003L29.6512 2.53503C29.505 2.80753 29.3837 3.05378 29.3837 3.08253C29.3837 3.11128 29.4437 3.15878 29.5137 3.19253C29.6222 3.26206 29.7139 3.35468 29.7825 3.46378L29.9212 3.67628L29.89 6.53253C29.8712 8.10378 29.84 9.50503 29.8225 9.64378L29.7887 9.89878L29.3575 9.87128L28.9275 9.83753L28.8912 10.0763C28.8666 10.2519 28.8545 10.429 28.855 10.6063C28.855 10.8463 28.8175 10.9725 28.655 11.2888L28.4512 11.6775L28.5637 11.8388C28.6262 11.9288 28.84 12.17 29.0387 12.3763L29.4037 12.7575L29.2925 13.1613L29.18 13.5675L29.3137 14.4275C29.4687 15.4613 29.4575 15.7213 29.2037 16.6163C29.1303 16.8601 29.0694 17.1075 29.0212 17.3575C29.0212 17.4513 29.09 17.475 29.555 17.5388C29.7612 17.565 29.805 17.59 29.805 17.6838C29.805 17.745 29.8375 19.0638 29.88 20.615C30.0137 25.7088 30.0262 26.82 29.9637 27.975C29.9486 28.3471 29.9206 28.7186 29.88 29.0888C29.8675 29.1 29.4537 28.9338 28.9575 28.72L28.0537 28.335L27.6637 28.5038C27.2612 28.6775 27.2212 28.7225 27.1687 29.0563C27.1325 29.2775 27.16 29.2675 26.1687 29.47L25.585 29.59L25.0175 29.4C24.4925 29.2238 24.4212 29.2113 24.0075 29.2388C23.6987 29.2575 23.4862 29.2425 23.305 29.1888C23.045 29.115 23.045 29.115 22.6087 29.3163L22.1687 29.515H20.5437C18.8325 29.5125 18.48 29.54 17.3012 29.7588C16.4862 29.9088 16.2 29.9025 14.7737 29.7313L14.0212 29.6388L13.495 29.7588C13.2025 29.8263 12.9075 29.8788 12.8375 29.8763C12.7525 29.8763 12.5575 29.75 12.2737 29.5088H12.2712ZM9.10497 24.8975C10.3612 24.4238 11.3975 24.0288 11.4037 24.02C11.42 24.0025 6.50747 19.2375 5.85497 18.6363C5.67372 18.4688 5.51122 18.34 5.49872 18.3525C5.48747 18.3663 5.08747 19.4338 4.61247 20.7213C4.08747 22.1438 3.76372 23.095 3.78997 23.135C3.82122 23.1875 6.77997 25.7488 6.81372 25.7563C6.81747 25.7563 7.84872 25.37 9.10497 24.8975ZM25.995 22.2863C26.6487 20.705 27.165 19.3988 27.1475 19.38C27.1237 19.3538 14.86 11.0725 6.27497 5.28253L5.58622 4.81878L4.46122 5.32753C3.83997 5.60503 3.34122 5.85878 3.34997 5.88628C3.36247 5.92128 7.51372 10.2738 12.58 15.5613L21.79 25.1763L23.2975 25.1663L24.8087 25.1563L25.995 22.2863ZM24.2925 8.71503C24.5087 7.51253 24.6875 6.48878 24.6875 6.43878C24.6875 6.38503 24.3712 6.12753 23.8425 5.75628C23.3775 5.42878 22.9662 5.14378 22.93 5.12003C22.8637 5.07878 18.0525 6.38003 18.0587 6.43628C18.0637 6.47378 23.8637 10.935 23.8837 10.9138C23.8937 10.9063 24.0762 9.91503 24.2925 8.71503Z"/>
</mask>
<path d="M12.2712 29.5088L11.8387 29.1413L11.2537 29.0913C10.5237 29.0313 10.1837 28.965 9.77122 28.8013L9.44872 28.6725L9.10122 28.81C8.80622 28.9288 8.08372 29.0363 7.53497 29.045C7.50497 29.045 7.45497 28.975 7.42372 28.8888C7.38872 28.8013 7.32747 28.7175 7.27997 28.7013C7.23622 28.6863 6.90872 28.7588 6.54622 28.8675L5.88997 29.065L5.65372 28.9513C5.35622 28.8063 5.23122 28.8088 4.73372 28.96C4.35497 29.0775 4.30747 29.08 4.00372 29.015C3.54997 28.92 3.17122 28.9263 2.31747 29.0475C1.38747 29.18 1.36747 29.18 1.09372 28.9925C0.949269 28.8803 0.768781 28.8247 0.58622 28.8363C0.33247 28.8363 0.30497 28.825 0.27622 28.7063C0.264493 28.5882 0.282989 28.469 0.32997 28.36C0.46997 28.0125 0.52497 27.17 0.53997 25.1563L0.55497 23.275L0.81872 23.2938L1.07872 23.3125L1.11872 22.225C1.13872 21.6275 1.15872 20.7638 1.16247 20.3075L1.16872 19.4825L1.02872 19.3825C0.64747 19.1038 0.66497 19.1438 0.50622 18.235C0.41896 17.726 0.358045 17.2128 0.32372 16.6975C0.29247 16.0325 0.29497 16.0138 0.41747 15.875L0.54247 15.7325L0.85247 15.9988C1.02497 16.145 1.17122 16.2413 1.18497 16.2113C1.22997 16.07 1.08872 14.385 1.01622 14.1725C0.968554 14.0494 0.940708 13.9194 0.93372 13.7875C0.93372 13.7025 0.84872 13.4725 0.74247 13.2725L0.55372 12.9113L0.61747 12.27C0.70122 11.42 0.59372 10.795 0.23747 10.0425L0.0812199 9.70378L0.17997 8.86253L0.28497 8.02003L0.17497 7.58378L0.0612199 7.14628L0.19247 6.65753L0.31872 6.16628L0.17497 5.69128L0.0262199 5.21753L0.20497 4.71753C0.38122 4.23128 0.38497 4.20503 0.38122 3.41253C0.37872 2.52003 0.28497 1.93878 0.0999699 1.70628C-0.0587801 1.50378 -0.0325301 1.36503 0.20372 1.14878C0.31622 1.04253 0.40997 0.907529 0.40997 0.851279C0.40997 0.765029 0.44872 0.748779 0.68622 0.743779C0.83622 0.743779 1.29872 0.703779 1.71497 0.656279L2.47372 0.565029L3.46622 0.711279C4.45622 0.855029 4.45747 0.855029 5.81497 0.797529L7.17497 0.738779L7.49622 0.932529L7.82122 1.12378L9.13997 1.10503L10.46 1.08628L10.905 0.925029C11.1475 0.836279 11.5362 0.681279 11.7675 0.576279C12.0644 0.44967 12.3692 0.342364 12.68 0.255029L13.1775 0.123779L13.82 0.326279L14.4625 0.531279L15.0175 0.345029L15.57 0.158779L16.1662 0.356279C16.495 0.463779 17.105 0.728779 17.5275 0.946279L18.2912 1.33628L19.0912 1.31378C19.6975 1.29503 19.905 1.27253 19.9375 1.21628C20.0049 1.05087 20.0605 0.880856 20.1037 0.707529L20.2225 0.268779L20.9787 0.293779C21.545 0.313779 22.0525 0.373779 22.98 0.536279L24.2237 0.756279L24.5475 0.626279C24.7225 0.555029 25.0575 0.468779 25.2912 0.438779C25.6825 0.386279 25.75 0.392529 26.2837 0.527529C26.7812 0.652529 26.9525 0.671279 27.6362 0.671279C28.0675 0.671279 28.515 0.652529 28.6337 0.632529C28.8375 0.597529 28.8712 0.611279 29.285 0.910029C29.5262 1.08253 29.74 1.25128 29.7587 1.28753C29.78 1.32128 29.825 1.50378 29.855 1.69253L29.9125 2.04003L29.6512 2.53503C29.505 2.80753 29.3837 3.05378 29.3837 3.08253C29.3837 3.11128 29.4437 3.15878 29.5137 3.19253C29.6222 3.26206 29.7139 3.35468 29.7825 3.46378L29.9212 3.67628L29.89 6.53253C29.8712 8.10378 29.84 9.50503 29.8225 9.64378L29.7887 9.89878L29.3575 9.87128L28.9275 9.83753L28.8912 10.0763C28.8666 10.2519 28.8545 10.429 28.855 10.6063C28.855 10.8463 28.8175 10.9725 28.655 11.2888L28.4512 11.6775L28.5637 11.8388C28.6262 11.9288 28.84 12.17 29.0387 12.3763L29.4037 12.7575L29.2925 13.1613L29.18 13.5675L29.3137 14.4275C29.4687 15.4613 29.4575 15.7213 29.2037 16.6163C29.1303 16.8601 29.0694 17.1075 29.0212 17.3575C29.0212 17.4513 29.09 17.475 29.555 17.5388C29.7612 17.565 29.805 17.59 29.805 17.6838C29.805 17.745 29.8375 19.0638 29.88 20.615C30.0137 25.7088 30.0262 26.82 29.9637 27.975C29.9486 28.3471 29.9206 28.7186 29.88 29.0888C29.8675 29.1 29.4537 28.9338 28.9575 28.72L28.0537 28.335L27.6637 28.5038C27.2612 28.6775 27.2212 28.7225 27.1687 29.0563C27.1325 29.2775 27.16 29.2675 26.1687 29.47L25.585 29.59L25.0175 29.4C24.4925 29.2238 24.4212 29.2113 24.0075 29.2388C23.6987 29.2575 23.4862 29.2425 23.305 29.1888C23.045 29.115 23.045 29.115 22.6087 29.3163L22.1687 29.515H20.5437C18.8325 29.5125 18.48 29.54 17.3012 29.7588C16.4862 29.9088 16.2 29.9025 14.7737 29.7313L14.0212 29.6388L13.495 29.7588C13.2025 29.8263 12.9075 29.8788 12.8375 29.8763C12.7525 29.8763 12.5575 29.75 12.2737 29.5088H12.2712ZM9.10497 24.8975C10.3612 24.4238 11.3975 24.0288 11.4037 24.02C11.42 24.0025 6.50747 19.2375 5.85497 18.6363C5.67372 18.4688 5.51122 18.34 5.49872 18.3525C5.48747 18.3663 5.08747 19.4338 4.61247 20.7213C4.08747 22.1438 3.76372 23.095 3.78997 23.135C3.82122 23.1875 6.77997 25.7488 6.81372 25.7563C6.81747 25.7563 7.84872 25.37 9.10497 24.8975ZM25.995 22.2863C26.6487 20.705 27.165 19.3988 27.1475 19.38C27.1237 19.3538 14.86 11.0725 6.27497 5.28253L5.58622 4.81878L4.46122 5.32753C3.83997 5.60503 3.34122 5.85878 3.34997 5.88628C3.36247 5.92128 7.51372 10.2738 12.58 15.5613L21.79 25.1763L23.2975 25.1663L24.8087 25.1563L25.995 22.2863ZM24.2925 8.71503C24.5087 7.51253 24.6875 6.48878 24.6875 6.43878C24.6875 6.38503 24.3712 6.12753 23.8425 5.75628C23.3775 5.42878 22.9662 5.14378 22.93 5.12003C22.8637 5.07878 18.0525 6.38003 18.0587 6.43628C18.0637 6.47378 23.8637 10.935 23.8837 10.9138C23.8937 10.9063 24.0762 9.91503 24.2925 8.71503Z" fill="#F24822" stroke="black" stroke-width="0.6" mask="url(#path-1-inside-1_745_151)"/>
</g>
<path d="M28.4823 15.5996C28.5424 15.5997 28.6017 15.6141 28.6552 15.6416C28.7086 15.6691 28.7549 15.709 28.7899 15.7578V15.7568L34.2616 23.4053C34.3022 23.4617 34.3268 23.5283 34.3319 23.5977C34.3345 23.6324 34.332 23.6673 34.3251 23.7012L34.2909 23.7979C34.2252 23.9245 34.0947 24.0039 33.954 24.0039H31.245V31.0225C31.245 31.072 31.2346 31.1212 31.2157 31.167C31.1967 31.2128 31.1688 31.2549 31.1337 31.29C31.0986 31.325 31.0573 31.3531 31.0116 31.3721C30.9657 31.3911 30.9158 31.4004 30.8661 31.4004H26.1327C26.0831 31.4004 26.034 31.391 25.9882 31.3721C25.9423 31.3531 25.9002 31.3252 25.8651 31.29C25.83 31.2549 25.8021 31.2128 25.7831 31.167C25.7642 31.1212 25.7547 31.072 25.7548 31.0225V24.0039H23.0458C22.9766 24.004 22.9086 23.9851 22.8495 23.9492C22.7902 23.9131 22.7416 23.8605 22.7098 23.7988L22.6757 23.7012C22.6687 23.6676 22.6664 23.6331 22.6688 23.5986C22.6737 23.5294 22.697 23.4628 22.7372 23.4062L28.1737 15.7588C28.2087 15.7096 28.2549 15.6693 28.3085 15.6416C28.3352 15.6278 28.3634 15.6175 28.3925 15.6104L28.4823 15.5996Z" fill="#7EDB08" stroke="black" stroke-width="0.3"/>
<defs>
<clipPath id="clip0_745_151">
<rect width="30" height="30" fill="white"/>
</clipPath>
</defs>
</svg>
