<svg width="30" height="30" viewBox="0 0 30 30" fill="none" xmlns="http://www.w3.org/2000/svg">
<path d="M6.03503 22.0225L3.26503 23.5775C3.15154 23.6436 3.02016 23.6723 2.88946 23.6596C2.75875 23.647 2.63534 23.5935 2.53666 23.5069C2.43799 23.4202 2.36905 23.3047 2.3396 23.1768C2.31014 23.0488 2.32166 22.9148 2.37253 22.7937L3.52378 20.1587L1.44878 18.115C1.35908 18.035 1.2962 17.9293 1.26869 17.8123C1.24119 17.6953 1.2504 17.5726 1.29506 17.461C1.33972 17.3494 1.41768 17.2543 1.51832 17.1886C1.61895 17.1229 1.73739 17.0898 1.85753 17.0937H4.25003L5.48128 14.445C5.5328 14.3421 5.61195 14.2556 5.70986 14.1951C5.80777 14.1346 5.92057 14.1026 6.03565 14.1026C6.15073 14.1026 6.26353 14.1346 6.36144 14.1951C6.45935 14.2556 6.5385 14.3421 6.59002 14.445L7.82127 17.0937H10.2125C10.3325 17.0902 10.4506 17.1236 10.551 17.1893C10.6513 17.255 10.7291 17.35 10.7738 17.4613C10.8185 17.5727 10.828 17.695 10.8009 17.8119C10.7739 17.9288 10.7116 18.0346 10.6225 18.115L8.54627 20.1587L9.69627 22.7975C9.74714 22.9186 9.75866 23.0525 9.7292 23.1805C9.69975 23.3085 9.63081 23.424 9.53214 23.5106C9.43346 23.5973 9.31005 23.6507 9.17934 23.6634C9.04864 23.6761 8.91726 23.6473 8.80378 23.5812L6.03503 22.0225ZM23.9488 22.0225L21.1788 23.5775C21.0653 23.6431 20.9341 23.6714 20.8037 23.6586C20.6733 23.6457 20.5502 23.5922 20.4517 23.5056C20.3533 23.4191 20.2845 23.3038 20.2551 23.1761C20.2256 23.0484 20.237 22.9147 20.2875 22.7937L21.4363 20.155L19.3613 18.1112C19.2707 18.0315 19.2072 17.9256 19.1793 17.8082C19.1514 17.6909 19.1605 17.5677 19.2055 17.4558C19.2504 17.3438 19.3289 17.2485 19.4303 17.183C19.5316 17.1175 19.6507 17.085 19.7713 17.09H22.1625L23.3938 14.4412C23.4452 14.338 23.5243 14.2512 23.6224 14.1905C23.7204 14.1298 23.8335 14.0976 23.9488 14.0976C24.0641 14.0976 24.1771 14.1298 24.2752 14.1905C24.3732 14.2512 24.4524 14.338 24.5038 14.4412L25.7338 17.09H28.1238C28.2442 17.0852 28.3632 17.1177 28.4645 17.1831C28.5657 17.2486 28.6443 17.3437 28.6895 17.4554C28.7346 17.5672 28.7441 17.6902 28.7167 17.8076C28.6893 17.925 28.6263 18.031 28.5363 18.1112L26.4613 20.155L27.6113 22.7937C27.6613 22.9148 27.6722 23.0484 27.6424 23.1759C27.6127 23.3034 27.5438 23.4185 27.4454 23.5049C27.347 23.5913 27.224 23.6447 27.0937 23.6578C26.9634 23.6708 26.8323 23.6427 26.7188 23.5775L23.9488 22.0225Z" fill="#FFEF5E"/>
<path d="M15.7037 6.76123L17.2362 9.91873H20.2187C20.3698 9.91181 20.5192 9.95189 20.6466 10.0334C20.7739 10.115 20.8728 10.234 20.9297 10.3741C20.9866 10.5142 20.9987 10.6685 20.9642 10.8157C20.9298 10.9629 20.8506 11.0959 20.7375 11.1962L18.1487 13.9012L19.5825 17.2012C19.6465 17.3523 19.6614 17.5196 19.6249 17.6796C19.5885 17.8395 19.5027 17.9839 19.3796 18.0924C19.2565 18.2008 19.1024 18.2678 18.9391 18.2837C18.7759 18.2996 18.6117 18.2638 18.47 18.1812L15 16.2275L11.5325 18.1812C11.3908 18.2635 11.2269 18.2992 11.0639 18.2833C10.9008 18.2673 10.7469 18.2005 10.6239 18.0923C10.5009 17.9841 10.4151 17.84 10.3785 17.6803C10.3419 17.5206 10.3564 17.3535 10.42 17.2025L11.855 13.9025L9.26122 11.1962C9.14831 11.096 9.06919 10.9633 9.03471 10.8163C9.00023 10.6694 9.01208 10.5153 9.06865 10.3754C9.12521 10.2354 9.22371 10.1164 9.35062 10.0346C9.47753 9.95284 9.62664 9.91237 9.77747 9.91873H12.7662L14.3037 6.76123C14.3709 6.63377 14.4716 6.52707 14.5949 6.45264C14.7183 6.37821 14.8596 6.33887 15.0037 6.33887C15.1478 6.33887 15.2891 6.37821 15.4125 6.45264C15.5359 6.52707 15.6365 6.63377 15.7037 6.76123Z" fill="#FFEF5E"/>
<path d="M10.95 15.9875L17.165 9.77124L15.7038 6.76124C15.6372 6.63219 15.5363 6.52396 15.4123 6.44841C15.2883 6.37285 15.1459 6.33289 15.0007 6.33289C14.8554 6.33289 14.713 6.37285 14.589 6.44841C14.465 6.52396 14.3641 6.63219 14.2975 6.76124L12.76 9.91874H9.77253C9.62223 9.91374 9.47405 9.9552 9.34817 10.0375C9.2223 10.1197 9.12484 10.2388 9.06909 10.3785C9.01333 10.5181 9.00199 10.6716 9.03661 10.8179C9.07122 10.9643 9.15011 11.0964 9.26253 11.1962L11.85 13.9L10.95 15.9875Z" fill="#FFF9BF"/>
<path d="M22.1625 17.0937L23.3938 14.445C23.447 14.3413 23.5278 14.2543 23.6273 14.1936C23.7267 14.1329 23.841 14.1008 23.9575 14.1008C24.0741 14.1008 24.1883 14.1329 24.2878 14.1936C24.3872 14.2543 24.468 14.3413 24.5213 14.445L25.7488 17.0937H28.14C28.2605 17.0889 28.3795 17.1215 28.4807 17.1869C28.582 17.2523 28.6606 17.3474 28.7057 17.4592C28.7509 17.5709 28.7604 17.6939 28.733 17.8113C28.7055 17.9287 28.6425 18.0348 28.5525 18.115L26.4763 20.1587L27.6263 22.7987C27.6776 22.9198 27.6894 23.0539 27.6601 23.1821C27.6307 23.3103 27.5617 23.4259 27.4629 23.5126C27.364 23.5992 27.2403 23.6525 27.1094 23.6649C26.9785 23.6772 26.8471 23.6479 26.7338 23.5812L23.955 22.0187L21.1763 23.5812C21.063 23.6474 20.9317 23.6763 20.8011 23.6638C20.6705 23.6512 20.5471 23.5979 20.4485 23.5113C20.3499 23.4247 20.2811 23.3093 20.2517 23.1814C20.2224 23.0535 20.234 22.9196 20.285 22.7987L20.9438 21.2862M9.06128 21.3L9.71377 22.8C9.76434 22.9208 9.77566 23.0545 9.74613 23.1821C9.7166 23.3098 9.64771 23.4249 9.5492 23.5112C9.45069 23.5976 9.32754 23.6508 9.19715 23.6634C9.06675 23.6759 8.93571 23.6472 8.82253 23.5812L6.04253 22.0187L3.26503 23.5812C3.15172 23.6479 3.02027 23.6772 2.88938 23.6649C2.75848 23.6525 2.63481 23.5992 2.53595 23.5126C2.43709 23.4259 2.36808 23.3103 2.33874 23.1821C2.3094 23.0539 2.32122 22.9198 2.37253 22.7987L3.52378 20.1587L1.44878 18.115C1.35908 18.035 1.2962 17.9293 1.26869 17.8123C1.24119 17.6953 1.2504 17.5726 1.29506 17.461C1.33972 17.3494 1.41768 17.2543 1.51832 17.1886C1.61895 17.1229 1.73739 17.0898 1.85753 17.0937H4.25003L5.48128 14.445C5.53451 14.3413 5.6153 14.2543 5.71476 14.1936C5.81422 14.1329 5.92849 14.1008 6.04503 14.1008C6.16156 14.1008 6.27583 14.1329 6.37529 14.1936C6.47475 14.2543 6.55554 14.3413 6.60878 14.445L7.83627 17.0937M15.7038 6.76123L17.2363 9.91873H20.2188C20.3698 9.91181 20.5193 9.95189 20.6466 10.0334C20.774 10.115 20.8729 10.234 20.9298 10.3741C20.9867 10.5142 20.9987 10.6685 20.9643 10.8157C20.9299 10.9629 20.8506 11.0959 20.7375 11.1962L18.1488 13.9012L19.5825 17.2012C19.6466 17.3523 19.6614 17.5196 19.625 17.6796C19.5886 17.8395 19.5027 17.9839 19.3796 18.0924C19.2566 18.2008 19.1025 18.2678 18.9392 18.2837C18.7759 18.2996 18.6118 18.2638 18.47 18.1812L15 16.2275L11.5325 18.1812C11.3909 18.2635 11.2269 18.2992 11.0639 18.2833C10.9009 18.2673 10.747 18.2005 10.624 18.0923C10.501 17.9841 10.4151 17.84 10.3785 17.6803C10.3419 17.5206 10.3564 17.3535 10.42 17.2025L11.855 13.9025L9.26127 11.1962C9.14837 11.096 9.06924 10.9633 9.03477 10.8163C9.00029 10.6694 9.01214 10.5153 9.06871 10.3754C9.12527 10.2354 9.22377 10.1164 9.35068 10.0346C9.47759 9.95284 9.62669 9.91237 9.77752 9.91873H12.7663L14.3038 6.76123C14.3709 6.63377 14.4716 6.52707 14.595 6.45264C14.7184 6.37821 14.8597 6.33887 15.0038 6.33887C15.1479 6.33887 15.2892 6.37821 15.4126 6.45264C15.5359 6.52707 15.6366 6.63377 15.7038 6.76123Z" stroke="#191919" stroke-linecap="round" stroke-linejoin="round"/>
</svg>
