<svg width="32" height="32" viewBox="0 0 32 32" fill="none" xmlns="http://www.w3.org/2000/svg">
<path d="M3.99969 20.9998C4.0881 20.9998 4.17351 21.0349 4.23602 21.0974C4.29853 21.1599 4.33368 21.2453 4.33368 21.3337V27.6667H10.6667C10.755 27.6667 10.8395 27.702 10.902 27.7644C10.9645 27.8268 10.9996 27.9115 10.9997 27.9998C10.9997 28.0882 10.9646 28.1736 10.902 28.2361C10.8396 28.2984 10.7549 28.3337 10.6667 28.3337H3.99969C3.91148 28.3337 3.82676 28.2984 3.76434 28.2361C3.70183 28.1736 3.66669 28.0882 3.66669 27.9998V21.3337C3.66669 21.2453 3.70183 21.1599 3.76434 21.0974C3.82676 21.0351 3.91148 20.9998 3.99969 20.9998ZM27.9997 20.9998C28.0881 20.9998 28.1735 21.0349 28.236 21.0974C28.2985 21.1599 28.3337 21.2453 28.3337 21.3337V27.9998C28.3337 28.0882 28.2985 28.1736 28.236 28.2361C28.1735 28.2986 28.0881 28.3337 27.9997 28.3337H21.3337C21.2453 28.3337 21.1599 28.2986 21.0974 28.2361C21.0348 28.1736 20.9997 28.0882 20.9997 27.9998C20.9998 27.9115 21.035 27.8268 21.0974 27.7644C21.1599 27.7019 21.2453 27.6667 21.3337 27.6667H27.6667V21.3337C27.6667 21.2453 27.7018 21.1599 27.7643 21.0974C27.8268 21.0351 27.9115 20.9998 27.9997 20.9998ZM3.99969 3.66675H10.6667C10.755 3.66675 10.8395 3.70199 10.902 3.7644C10.9645 3.82684 10.9996 3.91147 10.9997 3.99976C10.9997 4.08816 10.9646 4.17357 10.902 4.23608C10.8396 4.29839 10.7549 4.33374 10.6667 4.33374H4.33368V10.6667C4.33368 10.755 4.29833 10.8396 4.23602 10.9021C4.17351 10.9646 4.0881 10.9998 3.99969 10.9998C3.91141 10.9997 3.82678 10.9645 3.76434 10.9021C3.70193 10.8396 3.66669 10.7551 3.66669 10.6667V3.99976C3.66677 3.91147 3.70191 3.82684 3.76434 3.7644C3.82678 3.70197 3.91141 3.66683 3.99969 3.66675ZM21.3337 3.66675H27.9997C28.0881 3.66675 28.1735 3.70189 28.236 3.7644C28.2984 3.82682 28.3336 3.91154 28.3337 3.99976V10.6667C28.3337 10.755 28.2983 10.8396 28.236 10.9021C28.1735 10.9646 28.0881 10.9998 27.9997 10.9998C27.9114 10.9997 27.8268 10.9645 27.7643 10.9021C27.7019 10.8396 27.6667 10.7551 27.6667 10.6667V4.33374H21.3337C21.2453 4.33374 21.1599 4.2986 21.0974 4.23608C21.0348 4.17357 20.9997 4.08816 20.9997 3.99976C20.9998 3.91154 21.035 3.82682 21.0974 3.7644C21.1599 3.70189 21.2453 3.66675 21.3337 3.66675Z" fill="white" stroke="white" stroke-width="2"/>
</svg>
