<svg width="26" height="26" viewBox="0 0 26 26" fill="none" xmlns="http://www.w3.org/2000/svg">
<g clip-path="url(#clip0_194_162)">
<path d="M3.25 22.75H26V26H0V0H3.25V22.75ZM7.3125 21.125C6.98302 21.1257 6.65683 21.0595 6.35364 20.9306C6.05044 20.8016 5.77654 20.6125 5.54847 20.3747C5.32041 20.137 5.14292 19.8554 5.02673 19.5471C4.91054 19.2388 4.85806 18.9101 4.87246 18.581C4.88686 18.2518 4.96785 17.929 5.11052 17.632C5.2532 17.335 5.4546 17.07 5.70256 16.8531C5.95052 16.6361 6.2399 16.4717 6.55319 16.3697C6.86649 16.2677 7.19721 16.2303 7.52537 16.2597L10.1449 11.8934C9.90535 11.5255 9.76961 11.0998 9.75197 10.6612C9.73433 10.2227 9.83546 9.78743 10.0447 9.40155C10.2539 9.01566 10.5634 8.69343 10.9406 8.46888C11.3177 8.24434 11.7486 8.1258 12.1875 8.1258C12.6264 8.1258 13.0573 8.24434 13.4344 8.46888C13.8116 8.69343 14.1211 9.01566 14.3303 9.40155C14.5395 9.78743 14.6407 10.2227 14.623 10.6612C14.6054 11.0998 14.4696 11.5255 14.2301 11.8934L16.8496 16.2597C16.9739 16.2486 17.0989 16.2475 17.2234 16.2565L21.5491 8.68725C21.2383 8.23191 21.091 7.68463 21.1313 7.13476C21.1716 6.5849 21.3971 6.06495 21.771 5.65979C22.1449 5.25463 22.6452 4.9882 23.19 4.90401C23.7349 4.81982 24.2922 4.92283 24.771 5.19624C25.2498 5.46964 25.6217 5.89728 25.8261 6.40933C26.0305 6.92139 26.0552 7.4876 25.8963 8.01554C25.7374 8.54347 25.4041 9.00193 24.9511 9.31607C24.498 9.6302 23.9518 9.78146 23.4016 9.74513L19.0759 17.3144C19.3244 17.6789 19.4694 18.104 19.4953 18.5445C19.5212 18.9849 19.427 19.4241 19.2229 19.8152C19.0188 20.2064 18.7124 20.5348 18.3363 20.7654C17.9602 20.9961 17.5285 21.1203 17.0873 21.1249C16.6462 21.1295 16.212 21.0143 15.8312 20.7915C15.4504 20.5687 15.1372 20.2468 14.925 19.86C14.7128 19.4732 14.6095 19.0361 14.6262 18.5952C14.6429 18.1543 14.779 17.7262 15.0199 17.3566L12.4004 12.9902C12.2588 13.0034 12.1162 13.0034 11.9746 12.9902L9.35513 17.3566C9.59486 17.7245 9.73078 18.1503 9.74853 18.589C9.76628 19.0277 9.6652 19.4631 9.45596 19.8491C9.24672 20.2351 8.9371 20.5574 8.55981 20.782C8.18252 21.0066 7.75158 21.1251 7.3125 21.125Z" fill="#E9133F"/>
</g>
<defs>
<clipPath id="clip0_194_162">
<rect width="26" height="26" fill="white"/>
</clipPath>
</defs>
</svg>
