<svg width="26" height="26" viewBox="0 0 26 26" fill="none" xmlns="http://www.w3.org/2000/svg">
<path d="M7.58329 15.1667C7.1104 15.1674 6.64336 15.2713 6.21477 15.4711C5.78617 15.671 5.40635 15.9619 5.1018 16.3237C4.79726 16.6855 4.57534 17.1093 4.45152 17.5657C4.3277 18.0221 4.30497 18.5 4.38491 18.9661C4.46486 19.4322 4.64556 19.8752 4.91439 20.2643C5.18322 20.6533 5.53372 20.979 5.94142 21.2186C6.34911 21.4582 6.80418 21.606 7.27487 21.6516C7.74556 21.6971 8.22053 21.6394 8.66663 21.4825" stroke="#E9133F" stroke-width="1.5" stroke-linecap="round" stroke-linejoin="round"/>
<path d="M4.61928 16.9054C3.97097 16.5933 3.41059 16.1247 2.9887 15.5418C2.56682 14.9589 2.29671 14.2802 2.20275 13.5668C2.1088 12.8535 2.19396 12.1279 2.45054 11.4557C2.70713 10.7835 3.12706 10.1858 3.67245 9.71642M3.70495 9.62867C3.34966 9.09702 3.19394 8.45682 3.26535 7.82138C3.33677 7.18595 3.63071 6.59627 4.09514 6.15675C4.55957 5.71722 5.16454 5.4562 5.80294 5.41989C6.44134 5.38358 7.072 5.57431 7.58328 5.95834M12.9999 4.87501C12.9999 4.46917 12.9086 4.06853 12.7329 3.70272C12.5571 3.3369 12.3014 3.01525 11.9847 2.76155C11.6679 2.50784 11.2982 2.32857 10.9028 2.23698C10.5075 2.1454 10.0966 2.14383 9.70051 2.23241C9.30446 2.32098 8.93337 2.49743 8.61469 2.74872C8.296 3 8.03786 3.31969 7.85935 3.68416C7.68084 4.04863 7.58652 4.44856 7.58336 4.85438C7.58021 5.26021 7.66829 5.66155 7.84111 6.02876M8.66661 21.6667C8.66661 22.2413 8.89489 22.7924 9.30122 23.1987C9.70755 23.6051 10.2586 23.8333 10.8333 23.8333C11.4079 23.8333 11.959 23.6051 12.3653 23.1987C12.7717 22.7924 12.9999 22.2413 12.9999 21.6667M18.4166 15.1667C18.8895 15.1674 19.3565 15.2713 19.7851 15.4711C20.2137 15.6709 20.5936 15.9619 20.8981 16.3237C21.2026 16.6854 21.4246 17.1093 21.5484 17.5657C21.6722 18.0221 21.6949 18.5 21.615 18.9661C21.535 19.4322 21.3544 19.8752 21.0855 20.2643C20.8167 20.6533 20.4662 20.979 20.0585 21.2186C19.6508 21.4582 19.1957 21.606 18.725 21.6515C18.2543 21.6971 17.7794 21.6394 17.3333 21.4825" stroke="#E9133F" stroke-width="1.5" stroke-linecap="round" stroke-linejoin="round"/>
<path d="M21.3807 16.9054C22.029 16.5933 22.5894 16.1247 23.0112 15.5418C23.4331 14.9589 23.7032 14.2802 23.7972 13.5668C23.8911 12.8535 23.806 12.1279 23.5494 11.4557C23.2928 10.7835 22.8729 10.1858 22.3275 9.71642M22.295 9.62867C22.6503 9.09702 22.806 8.45682 22.7346 7.82138C22.6632 7.18595 22.3692 6.59627 21.9048 6.15675C21.4404 5.71722 20.8354 5.4562 20.197 5.41989C19.5586 5.38358 18.9279 5.57431 18.4167 5.95834M13 4.87501C13.0001 4.46917 13.0913 4.06853 13.2671 3.70272C13.4428 3.3369 13.6985 3.01525 14.0153 2.76155C14.332 2.50784 14.7018 2.32857 15.0971 2.23698C15.4925 2.1454 15.9034 2.14383 16.2994 2.23241C16.6955 2.32098 17.0666 2.49743 17.3853 2.74872C17.7039 3 17.9621 3.31969 18.1406 3.68416C18.3191 4.04863 18.4134 4.44856 18.4166 4.85438C18.4197 5.26021 18.3317 5.66155 18.1588 6.02876M17.3333 21.6667C17.3333 22.2413 17.1051 22.7924 16.6987 23.1987C16.2924 23.6051 15.7413 23.8333 15.1667 23.8333C14.592 23.8333 14.0409 23.6051 13.6346 23.1987C13.2283 22.7924 13 22.2413 13 21.6667M13 8.66667V13M13 17.3442L13.0108 17.3323" stroke="#E9133F" stroke-width="1.5" stroke-linecap="round" stroke-linejoin="round"/>
</svg>
