<svg width="26" height="26" viewBox="0 0 26 26" fill="none" xmlns="http://www.w3.org/2000/svg">
<g clip-path="url(#clip0_194_156)">
<path d="M22.1601 3.83988L24.8836 4.38426C25.0299 4.41351 25.1501 4.52076 25.1924 4.66539C25.2137 4.73564 25.2156 4.81036 25.1979 4.88161C25.1801 4.95286 25.1434 5.01797 25.0916 5.07001L22.8605 7.30276C22.5936 7.56921 22.2318 7.71882 21.8546 7.71876H20.0038L15.3562 12.3679C15.4449 12.7027 15.4612 13.0525 15.4041 13.3941C15.3469 13.7357 15.2177 14.0612 15.0249 14.3489C14.8321 14.6366 14.5802 14.8799 14.286 15.0626C13.9918 15.2453 13.662 15.3632 13.3186 15.4085C12.9753 15.4538 12.6262 15.4254 12.2947 15.3252C11.9632 15.225 11.6568 15.0553 11.3961 14.8274C11.1353 14.5995 10.926 14.3186 10.7823 14.0035C10.6386 13.6884 10.5636 13.3463 10.5625 13C10.5627 12.6261 10.649 12.2572 10.8145 11.9219C10.98 11.5866 11.2204 11.2939 11.5171 11.0663C11.8138 10.8387 12.1588 10.6824 12.5256 10.6094C12.8923 10.5364 13.2709 10.5487 13.6321 10.6454L18.2812 5.99464V4.14701C18.2812 3.77001 18.4307 3.40764 18.6972 3.14114L20.93 0.908385C20.982 0.856595 21.0472 0.819877 21.1184 0.802137C21.1896 0.784396 21.2644 0.786297 21.3346 0.807635C21.4792 0.849885 21.5865 0.970135 21.6158 1.11639L22.1601 3.83988Z" fill="#E9133F"/>
<path d="M3.25 13C3.25167 14.3942 3.55232 15.7718 4.13167 17.0399C4.71103 18.308 5.5556 19.4371 6.60843 20.3511C7.66126 21.265 8.89786 21.9426 10.2348 22.338C11.5717 22.7334 12.9779 22.8375 14.3585 22.6432C15.7391 22.4489 17.062 21.9608 18.2379 21.2119C19.4138 20.4629 20.4154 19.4704 21.1752 18.3014C21.9349 17.1324 22.4351 15.8141 22.642 14.4353C22.8489 13.0566 22.7578 11.6495 22.3746 10.309C22.3208 10.1524 22.2995 9.98645 22.3119 9.82132C22.3242 9.65619 22.3701 9.49531 22.4466 9.34846C22.5232 9.20162 22.6288 9.0719 22.7571 8.96718C22.8854 8.86246 23.0336 8.78495 23.1928 8.73935C23.352 8.69376 23.5188 8.68104 23.6831 8.70197C23.8473 8.7229 24.0056 8.77704 24.1483 8.8611C24.291 8.94515 24.415 9.05737 24.513 9.1909C24.6109 9.32444 24.6806 9.47651 24.7179 9.63786C25.4597 12.2338 25.3188 15.0026 24.3172 17.5099C23.3157 20.0171 21.5101 22.121 19.1838 23.4913C16.8575 24.8617 14.1421 25.421 11.4636 25.0815C8.78517 24.7421 6.29515 23.5231 4.38425 21.6157C2.47543 19.7053 1.25511 17.2151 0.914883 14.536C0.574655 11.8569 1.13378 9.14063 2.50449 6.81372C3.87519 4.48682 5.97985 2.68101 8.48802 1.67981C10.9962 0.67861 13.7658 0.538722 16.3621 1.28211C16.6713 1.37247 16.9321 1.58154 17.0875 1.86361C17.243 2.14569 17.2805 2.47784 17.1918 2.78747C17.1031 3.0971 16.8955 3.35904 16.6143 3.51604C16.333 3.67304 16.0011 3.71235 15.691 3.62536C14.2392 3.20881 12.7105 3.1352 11.2254 3.41031C9.74025 3.68543 8.33935 4.30175 7.13309 5.2107C5.92683 6.11965 4.94819 7.29637 4.27434 8.6481C3.60048 9.99982 3.24982 11.4896 3.25 13Z" fill="#E9133F"/>
<path d="M8.12504 13C8.12514 13.8882 8.36774 14.7595 8.82666 15.52C9.28559 16.2805 9.94343 16.9012 10.7292 17.3153C11.515 17.7293 12.3989 17.921 13.2857 17.8695C14.1724 17.8181 15.0282 17.5256 15.7609 17.0235C16.4935 16.5201 17.0745 15.8261 17.4411 15.0164C17.8077 14.2067 17.9459 13.3122 17.8409 12.4296C17.8125 12.2155 17.8417 11.9976 17.9255 11.7984C18.0093 11.5993 18.1446 11.4261 18.3176 11.2967C18.4906 11.1672 18.6949 11.0862 18.9096 11.062C19.1243 11.0378 19.3416 11.0712 19.539 11.1589C19.7365 11.2454 19.9074 11.3827 20.0344 11.5569C20.1615 11.731 20.2401 11.9357 20.2622 12.1501C20.4387 13.6583 20.1414 15.184 19.4115 16.5155C18.6816 17.8471 17.5553 18.9183 16.1889 19.5807C14.8225 20.243 13.2838 20.4635 11.7863 20.2116C10.2889 19.9598 8.90702 19.248 7.83248 18.1751C6.75795 17.1022 6.04407 15.7214 5.78992 14.2243C5.53578 12.7273 5.75397 11.1883 6.41422 9.82086C7.07447 8.45345 8.14403 7.32549 9.47443 6.59355C10.8048 5.86161 12.3301 5.56198 13.8385 5.73626C14.0001 5.75124 14.157 5.79832 14.3 5.87473C14.4431 5.95114 14.5695 6.05535 14.6718 6.18124C14.7741 6.30713 14.8502 6.45218 14.8958 6.60787C14.9413 6.76357 14.9552 6.92678 14.9368 7.08795C14.9185 7.24911 14.8681 7.40499 14.7887 7.54643C14.7093 7.68788 14.6024 7.81204 14.4744 7.91166C14.3464 8.01127 14.1998 8.08433 14.0431 8.12655C13.8865 8.16876 13.723 8.17929 13.5623 8.15751C12.8792 8.0782 12.1871 8.14429 11.5314 8.35145C10.8757 8.5586 10.2713 8.90214 9.75776 9.35948C9.24425 9.81682 8.8333 10.3776 8.55191 11.0051C8.27051 11.6325 8.12504 12.3124 8.12504 13Z" fill="#E9133F"/>
</g>
<defs>
<clipPath id="clip0_194_156">
<rect width="26" height="26" fill="white"/>
</clipPath>
</defs>
</svg>
