<svg width="26" height="26" viewBox="0 0 26 26" fill="none" xmlns="http://www.w3.org/2000/svg">
<path d="M22.75 20.5156H21.7344V4.0625C21.7344 3.90088 21.6702 3.74589 21.5559 3.63161C21.4416 3.51733 21.2866 3.45313 21.125 3.45312H15.4375C15.2759 3.45313 15.1209 3.51733 15.0066 3.63161C14.8923 3.74589 14.8281 3.90088 14.8281 4.0625V8.32812H9.75C9.58838 8.32812 9.43339 8.39233 9.31911 8.50661C9.20483 8.62089 9.14062 8.77588 9.14062 8.9375V13.2031H4.875C4.71338 13.2031 4.55839 13.2673 4.44411 13.3816C4.32983 13.4959 4.26562 13.6509 4.26562 13.8125V20.5156H3.25C3.08838 20.5156 2.93339 20.5798 2.81911 20.6941C2.70483 20.8084 2.64062 20.9634 2.64062 21.125C2.64062 21.2866 2.70483 21.4416 2.81911 21.5559C2.93339 21.6702 3.08838 21.7344 3.25 21.7344H22.75C22.9116 21.7344 23.0666 21.6702 23.1809 21.5559C23.2952 21.4416 23.3594 21.2866 23.3594 21.125C23.3594 20.9634 23.2952 20.8084 23.1809 20.6941C23.0666 20.5798 22.9116 20.5156 22.75 20.5156ZM16.0469 4.67188H20.5156V20.5156H16.0469V4.67188ZM10.3594 9.54688H14.8281V20.5156H10.3594V9.54688ZM5.48438 14.4219H9.14062V20.5156H5.48438V14.4219Z" fill="#E9133F"/>
</svg>
