<svg width="26" height="26" viewBox="0 0 26 26" fill="none" xmlns="http://www.w3.org/2000/svg">
<path d="M21.9375 3.25H15.4375C15.313 3.24999 15.1903 3.27855 15.0786 3.33349C14.967 3.38843 14.8694 3.46828 14.7935 3.56687L8.29355 12.0179L7.31246 11.0388C7.16154 10.8877 6.98232 10.7679 6.78505 10.6861C6.58777 10.6043 6.37632 10.5622 6.16277 10.5622C5.94922 10.5622 5.73776 10.6043 5.54049 10.6861C5.34322 10.7679 5.164 10.8877 5.01308 11.0388L3.72425 12.3287C3.57332 12.4796 3.45359 12.6587 3.3719 12.8559C3.29021 13.0531 3.24817 13.2644 3.24817 13.4779C3.24817 13.6913 3.29021 13.9026 3.3719 14.0998C3.45359 14.297 3.57332 14.4761 3.72425 14.627L5.7555 16.6583L2.91175 19.502C2.76082 19.6529 2.64109 19.8321 2.5594 20.0293C2.47771 20.2264 2.43567 20.4378 2.43567 20.6512C2.43567 20.8646 2.47771 21.076 2.5594 21.2732C2.64109 21.4703 2.76082 21.6495 2.91175 21.8004L4.20058 23.0882C4.5053 23.3927 4.91846 23.5638 5.34925 23.5638C5.78004 23.5638 6.19321 23.3927 6.49792 23.0882L9.34167 20.2445L11.3729 22.2757C11.5238 22.4268 11.7031 22.5466 11.9003 22.6284C12.0976 22.7102 12.3091 22.7523 12.5226 22.7523C12.7362 22.7523 12.9476 22.7102 13.1449 22.6284C13.3422 22.5466 13.5214 22.4268 13.6723 22.2757L14.9611 20.9859C15.1121 20.835 15.2318 20.6558 15.3135 20.4586C15.3952 20.2614 15.4372 20.0501 15.4372 19.8367C15.4372 19.6233 15.3952 19.4119 15.3135 19.2147C15.2318 19.0176 15.1121 18.8384 14.9611 18.6875L13.9821 17.7084L22.4331 11.2084C22.5319 11.1323 22.612 11.0345 22.6669 10.9225C22.7219 10.8104 22.7503 10.6873 22.75 10.5625V4.0625C22.75 3.84701 22.6644 3.64035 22.512 3.48798C22.3596 3.3356 22.1529 3.25 21.9375 3.25ZM5.35128 21.9375L4.06245 20.6497L6.90621 17.8059L8.19402 19.0938L5.35128 21.9375ZM12.5226 21.125L4.87495 13.4784L6.1648 12.1875L13.8125 19.8362L12.5226 21.125ZM21.125 10.1623L12.8232 16.5486L11.7121 15.4375L16.8248 10.3248C16.9771 10.1724 17.0626 9.96566 17.0625 9.75015C17.0625 9.53464 16.9767 9.32799 16.8243 9.17566C16.6718 9.02334 16.4651 8.93782 16.2496 8.93792C16.0341 8.93801 15.8274 9.02371 15.6751 9.17617L10.5625 14.2878L9.45238 13.1767L15.8376 4.875H21.125V10.1623Z" fill="#E9133F"/>
</svg>
