<svg width="26" height="26" viewBox="0 0 26 26" fill="none" xmlns="http://www.w3.org/2000/svg">
<g clip-path="url(#clip0_194_138)">
<path d="M9.53337 19.9212L13 25.1177L16.4667 19.9212H23.4C23.8597 19.9212 24.3006 19.7386 24.6257 19.4135C24.9507 19.0885 25.1334 18.6476 25.1334 18.1879V2.60001C25.1334 2.37247 25.0885 2.14715 25.0014 1.93695C24.9143 1.72675 24.7866 1.53579 24.6256 1.37497C24.4646 1.21415 24.2735 1.08664 24.0632 0.999721C23.8529 0.912802 23.6276 0.868181 23.4 0.868409H2.60003C2.14032 0.868409 1.69944 1.05103 1.37438 1.37609C1.04932 1.70115 0.866699 2.14203 0.866699 2.60174V18.1913C0.866699 19.1481 1.6415 19.9229 2.60003 19.9229L9.53337 19.9212Z" stroke="#E9133F" stroke-linecap="square" stroke-linejoin="round"/>
</g>
<defs>
<clipPath id="clip0_194_138">
<rect width="26" height="26" fill="white"/>
</clipPath>
</defs>
</svg>
