<svg width="26" height="26" viewBox="0 0 26 26" fill="none" xmlns="http://www.w3.org/2000/svg">
<path d="M7.58333 13C8.18164 13 8.66667 12.515 8.66667 11.9166C8.66667 11.3183 8.18164 10.8333 7.58333 10.8333C6.98502 10.8333 6.5 11.3183 6.5 11.9166C6.5 12.515 6.98502 13 7.58333 13Z" fill="#E9133F"/>
<path d="M23.3837 7.787C23.2446 7.6863 23.0834 7.62029 22.9137 7.59447C22.7439 7.56866 22.5704 7.58378 22.4076 7.63859L20.5584 8.25392C20.4573 7.46979 20.0743 6.74927 19.4808 6.22695C18.8873 5.70462 18.1239 5.41621 17.3333 5.41559H5.41663C3.62479 5.41559 2.16663 6.87484 2.16663 8.66559V15.1656C2.16663 16.9563 3.62479 18.4156 5.41663 18.4156H8.66663V19.6192L8.67529 19.7167C8.74679 20.5162 9.08804 21.2583 9.63621 21.8053C10.245 22.4142 11.0565 22.75 11.9155 22.75C12.7746 22.75 13.586 22.4142 14.1949 21.8075C14.8167 21.1824 15.1677 20.3493 15.1655 19.5184V18.4167H17.3322C18.1226 18.4149 18.8855 18.1262 19.4789 17.6041C20.0724 17.082 20.456 16.3621 20.5584 15.5783L22.4076 16.1937C22.7359 16.3063 23.101 16.2489 23.3826 16.0442C23.5221 15.9439 23.6357 15.8117 23.7139 15.6588C23.7921 15.5058 23.8326 15.3363 23.8322 15.1645V8.66451C23.8322 8.4932 23.7915 8.32434 23.7135 8.1718C23.6355 8.01927 23.5225 7.88739 23.3837 7.787ZM13 19.5249C12.9908 19.808 12.8705 20.0762 12.6652 20.2713C12.567 20.3698 12.4503 20.4479 12.3219 20.5012C12.1934 20.5545 12.0557 20.582 11.9166 20.582C11.7776 20.582 11.6398 20.5545 11.5114 20.5012C11.3829 20.4479 11.2663 20.3698 11.168 20.2713C10.9726 20.0685 10.8542 19.8037 10.8333 19.5228V17.3333H13V19.5249ZM18.4166 15.1667C18.4166 15.454 18.3025 15.7295 18.0993 15.9327C17.8962 16.1359 17.6206 16.25 17.3333 16.25H5.41663C5.12931 16.25 4.85376 16.1359 4.65059 15.9327C4.44743 15.7295 4.33329 15.454 4.33329 15.1667V8.66667C4.33329 8.37935 4.44743 8.1038 4.65059 7.90064C4.85376 7.69747 5.12931 7.58334 5.41663 7.58334H17.3333C17.6206 7.58334 17.8962 7.69747 18.0993 7.90064C18.3025 8.1038 18.4166 8.37935 18.4166 8.66667V15.1667ZM21.6666 13.6619C21.6666 13.6619 19.6137 13.0065 19.5 13.0065V10.8268C19.6137 10.8268 21.6666 10.1714 21.6666 10.1714V13.6619Z" fill="#E9133F"/>
</svg>
